<svg width="1026" height="387" viewBox="0 0 1026 387" fill="none" xmlns="http://www.w3.org/2000/svg">
<mask id="mask0_70_207" style="mask-type:alpha" maskUnits="userSpaceOnUse" x="0" y="0" width="1026" height="387">
<rect width="1026" height="387" rx="16" fill="#D9D9D9"/>
</mask>
<g mask="url(#mask0_70_207)">
<rect width="1026" height="387" rx="16" fill="#BEB9E1"/>
<g filter="url(#filter0_f_70_207)">
<ellipse cx="436.214" cy="140.504" rx="268.698" ry="408.541" transform="rotate(-111.286 436.214 140.504)" fill="#7D6AF4"/>
</g>
<mask id="mask1_70_207" style="mask-type:alpha" maskUnits="userSpaceOnUse" x="-275" y="-816" width="1405" height="1614">
<path d="M1129 -489.672L250.256 -815.216L-218.202 -41.7562L-274.5 206.828L132.158 735.555L546.315 797.853L884.969 112.488L1129 -489.672Z" fill="url(#paint0_linear_70_207)"/>
</mask>
<g mask="url(#mask1_70_207)">
<mask id="mask2_70_207" style="mask-type:alpha" maskUnits="userSpaceOnUse" x="-373" y="-857" width="1511" height="1709">
<path d="M499.604 851.257C112.763 659.462 -353.001 373.379 -372.896 365.102L237 -856.172L1137.5 -496.172L499.604 851.257Z" fill="url(#paint1_linear_70_207)"/>
</mask>
<g mask="url(#mask2_70_207)">
<path d="M1.99387 -9.6446C68.2328 -143.698 262.561 -187.904 386.85 -126.489C511.14 -65.075 647.435 69.7857 576.366 213.614C541.148 284.888 581.471 412.481 477.736 466.578C372.137 521.646 212.306 418.283 149.607 387.303C25.3176 325.888 -64.2451 124.409 1.99387 -9.6446Z" fill="#7D6AF4"/>
<g filter="url(#filter1_f_70_207)">
<path d="M11.8458 -2.77896C82.8855 -146.548 241.359 -196.257 337.854 -148.577C434.348 -100.897 534.177 15.9179 463.137 159.687C427.934 230.932 452.204 350.549 362.326 411.451C270.835 473.446 148.909 388.823 100.233 364.771C3.73807 317.091 -59.194 140.99 11.8458 -2.77896Z" fill="#7D6AF4"/>
</g>
<g filter="url(#filter2_f_70_207)">
<path d="M13.9968 -7.13007C93.6185 -168.268 283.505 -217.919 402.655 -159.045C521.805 -100.17 648.128 37.8886 568.506 199.026C529.049 278.878 574.989 422.204 468.777 487.756C360.658 554.486 198.924 447.249 138.819 417.549C19.6685 358.674 -65.6249 154.008 13.9968 -7.13007Z" fill="#7D6AF4"/>
</g>
<g filter="url(#filter3_f_70_207)">
<path d="M62.1351 -6.56004C192.748 -189.542 445.01 -269.922 599.166 -193.75C753.321 -117.579 870.077 65.7429 774.586 258.995C727.266 354.761 834.448 560.889 701.462 636.735C566.086 713.944 290.205 563.349 212.441 524.924C58.286 448.752 -89.1723 205.415 62.1351 -6.56004Z" fill="#7D6AF4"/>
</g>
<g filter="url(#filter4_f_70_207)">
<path d="M126.954 -39.366C229.773 -247.448 524.246 -343.306 674.965 -268.833C825.683 -194.359 934.895 -5.1245 832.077 202.958C781.126 306.073 776.781 459.695 641.192 545.118C503.167 632.076 160.603 538.468 84.5727 500.9C-66.1461 426.426 24.1363 168.716 126.954 -39.366Z" fill="#7D6AF4"/>
</g>
<g filter="url(#filter5_f_70_207)">
<path d="M234.476 -105.487C340.729 -320.521 635.345 -405.264 789.5 -329.093C943.655 -252.921 1054.79 -58.2181 948.535 156.816C895.881 263.376 608.712 319.433 469.389 408.103C327.563 498.366 131.794 365.173 54.0304 326.748C-100.125 250.576 128.223 109.547 234.476 -105.487Z" fill="#7D6AF4"/>
</g>
<g filter="url(#filter6_f_70_207)">
<path d="M130.045 44.1357C223.016 -144.019 506.198 -205.622 660.353 -129.45C814.508 -53.2788 932.58 127.379 839.609 315.534C793.537 408.774 778.603 542.246 647.1 615.091C513.234 689.245 315.655 559.715 237.891 521.29C83.7359 445.118 37.0733 232.29 130.045 44.1357Z" fill="#7D6AF4"/>
</g>
</g>
</g>
<mask id="mask3_70_207" style="mask-type:alpha" maskUnits="userSpaceOnUse" x="-17" y="-476" width="1696" height="1181">
<path d="M-16.5237 521.584C33.9374 92.7658 98.3951 -454.255 99.2133 -475.807L1678.74 -292.519L1563.01 704.872L-16.5237 521.584Z" fill="url(#paint2_linear_70_207)"/>
</mask>
<g mask="url(#mask3_70_207)">
<path d="M814.367 -215.399C992.517 -194.726 1124.48 -23.7392 1108.5 113.972C1092.52 251.683 999.43 424.036 808.29 401.856C713.571 390.865 587.882 469.576 483.306 387.94C376.851 304.838 424.694 120.04 432.755 50.5712C448.735 -87.1399 636.217 -236.071 814.367 -215.399Z" fill="#7D6AF4"/>
<g filter="url(#filter7_f_70_207)">
<path d="M810.863 -203.852C1001.92 -181.682 1123.34 -33.7797 1109.61 84.5923C1095.87 202.964 1005.76 349.941 814.696 327.771C720.015 316.784 595.516 385.651 489.868 313.651C382.322 240.358 427.094 81.9346 434.023 22.2218C447.758 -96.1502 619.801 -226.023 810.863 -203.852Z" fill="#7D6AF4"/>
</g>
<g filter="url(#filter8_f_70_207)">
<path d="M816.651 -203.179C1030.79 -178.33 1165.16 2.23702 1148.23 148.175C1131.29 294.113 1028.27 476.255 814.131 451.406C708.013 439.092 565.827 539.087 448.183 451.783C328.425 362.911 382.137 154.912 390.68 81.2931C407.614 -64.645 602.508 -228.028 816.651 -203.179Z" fill="#7D6AF4"/>
</g>
<g filter="url(#filter9_f_70_207)">
<path d="M839.36 -183.027C1099.6 -116.55 1296.63 98.1445 1276.81 268.946C1256.99 439.748 1101.37 608.822 844.553 579.02C717.285 564.252 532.079 731.423 390.744 628.821C246.87 524.377 308.901 295.486 318.899 209.325C338.719 38.5232 537.892 -260.037 839.36 -183.027Z" fill="#7D6AF4"/>
</g>
<g filter="url(#filter10_f_70_207)">
<path d="M920.417 -103.566C1196.95 -71.4777 1409.47 176.209 1390.1 343.202C1370.72 510.196 1205.28 673.959 928.75 641.871C791.716 625.969 617.935 670.393 464.777 568.342C308.867 464.457 372.981 241.071 382.757 156.83C402.134 -10.1636 643.887 -135.655 920.417 -103.566Z" fill="#7D6AF4"/>
</g>
<g filter="url(#filter11_f_70_207)">
<path d="M1020.31 -24.42C1306.08 8.74047 1525.98 262.367 1506.16 433.169C1486.34 603.97 1315.59 771.289 1029.82 738.129C888.213 721.696 708.705 766.928 550.328 662.349C389.105 555.892 455.081 327.459 465.079 241.298C484.899 70.4961 734.541 -57.5805 1020.31 -24.42Z" fill="#7D6AF4"/>
</g>
<g filter="url(#filter12_f_70_207)">
<path d="M808.525 -76.5223C1058.57 -47.5069 1247.72 202.551 1227.9 373.353C1208.08 544.155 1056 713.639 805.952 684.624C682.042 670.245 526.319 698.221 388.973 596.083C249.159 492.109 310.267 263.111 320.265 176.95C340.084 6.14865 558.477 -105.538 808.525 -76.5223Z" fill="#7D6AF4"/>
</g>
</g>
<mask id="mask4_70_207" style="mask-type:alpha" maskUnits="userSpaceOnUse" x="100" y="-454" width="1102" height="1504">
<path d="M100.215 -340.199C539.473 -392.461 1018.93 -449.322 1040.63 -453.372L1201.86 935.844L261.442 1049.02L100.215 -340.199Z" fill="url(#paint3_linear_70_207)"/>
</mask>
<g mask="url(#mask4_70_207)">
<path d="M997.096 163.086C1008.81 260.447 917.974 354.423 827.704 365.287C737.434 376.15 614.228 350.994 601.657 246.534C595.428 194.769 527.521 139.178 565.072 72.2667C603.298 4.15359 728.128 3.57303 773.665 -1.90701C863.935 -12.7704 985.379 65.7247 997.096 163.086Z" fill="#7D6AF4"/>
<g filter="url(#filter13_f_70_207)">
<path d="M989.224 162.85C1001.79 267.268 932.611 351.405 862.528 359.839C792.446 368.273 695.734 339.945 683.168 235.527C676.941 183.783 620.709 126.813 648.211 61.1369C676.206 -5.71919 773.502 -2.99214 808.856 -7.24665C878.938 -15.6806 976.658 58.4327 989.224 162.85Z" fill="#7D6AF4"/>
</g>
<g filter="url(#filter14_f_70_207)">
<path d="M989.604 166.011C1003.69 283.043 917.242 378.416 830.705 388.83C744.167 399.244 625.289 368.756 611.205 251.724C604.226 193.729 527.592 131.515 562.394 57.4256C597.82 -17.9944 725.085 -17.1299 768.739 -22.3833C855.276 -32.7974 975.52 48.9792 989.604 166.011Z" fill="#7D6AF4"/>
</g>
<g filter="url(#filter15_f_70_207)">
<path d="M962.969 182.965C956.892 330.281 847.221 464.9 735.26 478.373C623.299 491.847 493.438 433.075 476.547 292.719C468.177 223.165 335.392 148.438 381.201 59.0931C427.834 -31.857 633.323 -48.1317 689.802 -54.9285C801.762 -68.4022 970.009 12.3078 962.969 182.965Z" fill="#7D6AF4"/>
</g>
<g filter="url(#filter16_f_70_207)">
<path d="M939.148 224.228C957.335 375.355 830.04 533.612 720.575 546.786C611.11 559.959 483.27 495.235 465.083 344.107C456.07 269.217 403.351 183.312 447.155 87.7757C491.745 -9.47733 713.405 -80.9596 768.624 -87.6049C878.089 -100.778 920.961 73.1003 939.148 224.228Z" fill="#7D6AF4"/>
</g>
<g filter="url(#filter17_f_70_207)">
<path d="M903.831 299.099C922.626 455.275 791.266 607.481 679.305 620.955C567.344 634.428 436.488 567.391 417.693 411.215C408.38 333.822 545.941 200.037 590.629 101.378C636.121 0.946764 791.383 3.85378 847.862 -2.94305C959.823 -16.4168 885.036 142.923 903.831 299.099Z" fill="#7D6AF4"/>
</g>
<g filter="url(#filter18_f_70_207)">
<path d="M907.499 179.49C923.944 316.144 790.562 451.544 678.601 465.018C566.64 478.491 437.012 421.654 420.566 285C412.417 217.281 372.74 138.642 418.812 51.477C465.711 -37.2541 620.653 -37.0076 677.132 -43.8044C789.093 -57.2781 891.054 42.836 907.499 179.49Z" fill="#7D6AF4"/>
</g>
</g>
</g>
<defs>
<filter id="filter0_f_70_207" x="-205.386" y="-399.075" width="1283.2" height="1079.16" filterUnits="userSpaceOnUse" color-interpolation-filters="sRGB">
<feFlood flood-opacity="0" result="BackgroundImageFix"/>
<feBlend mode="normal" in="SourceGraphic" in2="BackgroundImageFix" result="shape"/>
<feGaussianBlur stdDeviation="124.268" result="effect1_foregroundBlur_70_207"/>
</filter>
<filter id="filter1_f_70_207" x="-28.5708" y="-176.075" width="525.685" height="619.731" filterUnits="userSpaceOnUse" color-interpolation-filters="sRGB">
<feFlood flood-opacity="0" result="BackgroundImageFix"/>
<feBlend mode="normal" in="SourceGraphic" in2="BackgroundImageFix" result="shape"/>
<feGaussianBlur stdDeviation="4.97072" result="effect1_foregroundBlur_70_207"/>
</filter>
<filter id="filter2_f_70_207" x="-51.8045" y="-217.735" width="680.024" height="761.781" filterUnits="userSpaceOnUse" color-interpolation-filters="sRGB">
<feFlood flood-opacity="0" result="BackgroundImageFix"/>
<feBlend mode="normal" in="SourceGraphic" in2="BackgroundImageFix" result="shape"/>
<feGaussianBlur stdDeviation="17.3975" result="effect1_foregroundBlur_70_207"/>
</filter>
<filter id="filter3_f_70_207" x="-50.9777" y="-272.084" width="909.825" height="980.236" filterUnits="userSpaceOnUse" color-interpolation-filters="sRGB">
<feFlood flood-opacity="0" result="BackgroundImageFix"/>
<feBlend mode="normal" in="SourceGraphic" in2="BackgroundImageFix" result="shape"/>
<feGaussianBlur stdDeviation="24.8536" result="effect1_foregroundBlur_70_207"/>
</filter>
<filter id="filter4_f_70_207" x="-129.592" y="-428.107" width="1136.15" height="1143.33" filterUnits="userSpaceOnUse" color-interpolation-filters="sRGB">
<feFlood flood-opacity="0" result="BackgroundImageFix"/>
<feBlend mode="normal" in="SourceGraphic" in2="BackgroundImageFix" result="shape"/>
<feGaussianBlur stdDeviation="67.1047" result="effect1_foregroundBlur_70_207"/>
</filter>
<filter id="filter5_f_70_207" x="-330.879" y="-689.594" width="1654.42" height="1461.52" filterUnits="userSpaceOnUse" color-interpolation-filters="sRGB">
<feFlood flood-opacity="0" result="BackgroundImageFix"/>
<feBlend mode="normal" in="SourceGraphic" in2="BackgroundImageFix" result="shape"/>
<feGaussianBlur stdDeviation="166.519" result="effect1_foregroundBlur_70_207"/>
</filter>
<filter id="filter6_f_70_207" x="-71.734" y="-315.369" width="1098.34" height="1107.06" filterUnits="userSpaceOnUse" color-interpolation-filters="sRGB">
<feFlood flood-opacity="0" result="BackgroundImageFix"/>
<feBlend mode="normal" in="SourceGraphic" in2="BackgroundImageFix" result="shape"/>
<feGaussianBlur stdDeviation="77.0461" result="effect1_foregroundBlur_70_207"/>
</filter>
<filter id="filter7_f_70_207" x="408.972" y="-216.286" width="711.63" height="573.175" filterUnits="userSpaceOnUse" color-interpolation-filters="sRGB">
<feFlood flood-opacity="0" result="BackgroundImageFix"/>
<feBlend mode="normal" in="SourceGraphic" in2="BackgroundImageFix" result="shape"/>
<feGaussianBlur stdDeviation="4.97072" result="effect1_foregroundBlur_70_207"/>
</filter>
<filter id="filter8_f_70_207" x="336.513" y="-240.497" width="847.944" height="763.195" filterUnits="userSpaceOnUse" color-interpolation-filters="sRGB">
<feFlood flood-opacity="0" result="BackgroundImageFix"/>
<feBlend mode="normal" in="SourceGraphic" in2="BackgroundImageFix" result="shape"/>
<feGaussianBlur stdDeviation="17.3975" result="effect1_foregroundBlur_70_207"/>
</filter>
<filter id="filter9_f_70_207" x="247.352" y="-245.185" width="1080.54" height="957.218" filterUnits="userSpaceOnUse" color-interpolation-filters="sRGB">
<feFlood flood-opacity="0" result="BackgroundImageFix"/>
<feBlend mode="normal" in="SourceGraphic" in2="BackgroundImageFix" result="shape"/>
<feGaussianBlur stdDeviation="24.8536" result="effect1_foregroundBlur_70_207"/>
</filter>
<filter id="filter10_f_70_207" x="227.238" y="-242.806" width="1298.29" height="1022.94" filterUnits="userSpaceOnUse" color-interpolation-filters="sRGB">
<feFlood flood-opacity="0" result="BackgroundImageFix"/>
<feBlend mode="normal" in="SourceGraphic" in2="BackgroundImageFix" result="shape"/>
<feGaussianBlur stdDeviation="67.1047" result="effect1_foregroundBlur_70_207"/>
</filter>
<filter id="filter11_f_70_207" x="110.248" y="-362.71" width="1730.19" height="1438.11" filterUnits="userSpaceOnUse" color-interpolation-filters="sRGB">
<feFlood flood-opacity="0" result="BackgroundImageFix"/>
<feBlend mode="normal" in="SourceGraphic" in2="BackgroundImageFix" result="shape"/>
<feGaussianBlur stdDeviation="166.519" result="effect1_foregroundBlur_70_207"/>
</filter>
<filter id="filter12_f_70_207" x="144.31" y="-235.196" width="1239.11" height="1077.17" filterUnits="userSpaceOnUse" color-interpolation-filters="sRGB">
<feFlood flood-opacity="0" result="BackgroundImageFix"/>
<feBlend mode="normal" in="SourceGraphic" in2="BackgroundImageFix" result="shape"/>
<feGaussianBlur stdDeviation="77.0461" result="effect1_foregroundBlur_70_207"/>
</filter>
<filter id="filter13_f_70_207" x="634.162" y="-14.42" width="363.069" height="382.175" filterUnits="userSpaceOnUse" color-interpolation-filters="sRGB">
<feFlood flood-opacity="0" result="BackgroundImageFix"/>
<feBlend mode="normal" in="SourceGraphic" in2="BackgroundImageFix" result="shape"/>
<feGaussianBlur stdDeviation="3.25995" result="effect1_foregroundBlur_70_207"/>
</filter>
<filter id="filter14_f_70_207" x="530.554" y="-46.0958" width="483.386" height="459.649" filterUnits="userSpaceOnUse" color-interpolation-filters="sRGB">
<feFlood flood-opacity="0" result="BackgroundImageFix"/>
<feBlend mode="normal" in="SourceGraphic" in2="BackgroundImageFix" result="shape"/>
<feGaussianBlur stdDeviation="11.4098" result="effect1_foregroundBlur_70_207"/>
</filter>
<filter id="filter15_f_70_207" x="339.015" y="-88.9752" width="656.768" height="601.825" filterUnits="userSpaceOnUse" color-interpolation-filters="sRGB">
<feFlood flood-opacity="0" result="BackgroundImageFix"/>
<feBlend mode="normal" in="SourceGraphic" in2="BackgroundImageFix" result="shape"/>
<feGaussianBlur stdDeviation="16.2998" result="effect1_foregroundBlur_70_207"/>
</filter>
<filter id="filter16_f_70_207" x="341.957" y="-176.329" width="686.956" height="812.799" filterUnits="userSpaceOnUse" color-interpolation-filters="sRGB">
<feFlood flood-opacity="0" result="BackgroundImageFix"/>
<feBlend mode="normal" in="SourceGraphic" in2="BackgroundImageFix" result="shape"/>
<feGaussianBlur stdDeviation="44.0093" result="effect1_foregroundBlur_70_207"/>
</filter>
<filter id="filter17_f_70_207" x="198.826" y="-222.158" width="930.701" height="1063.22" filterUnits="userSpaceOnUse" color-interpolation-filters="sRGB">
<feFlood flood-opacity="0" result="BackgroundImageFix"/>
<feBlend mode="normal" in="SourceGraphic" in2="BackgroundImageFix" result="shape"/>
<feGaussianBlur stdDeviation="109.208" result="effect1_foregroundBlur_70_207"/>
</filter>
<filter id="filter18_f_70_207" x="295.859" y="-146.078" width="714.082" height="714.082" filterUnits="userSpaceOnUse" color-interpolation-filters="sRGB">
<feFlood flood-opacity="0" result="BackgroundImageFix"/>
<feBlend mode="normal" in="SourceGraphic" in2="BackgroundImageFix" result="shape"/>
<feGaussianBlur stdDeviation="50.5292" result="effect1_foregroundBlur_70_207"/>
</filter>
<linearGradient id="paint0_linear_70_207" x1="308.502" y1="-127.488" x2="127.517" y2="329.66" gradientUnits="userSpaceOnUse">
<stop stop-color="#C4C4C4"/>
<stop offset="0.943414" stop-color="#C4C4C4" stop-opacity="0"/>
</linearGradient>
<linearGradient id="paint1_linear_70_207" x1="146.075" y1="63.8814" x2="627.967" y2="368.366" gradientUnits="userSpaceOnUse">
<stop stop-color="#C4C4C4"/>
<stop offset="1" stop-color="#C4C4C4" stop-opacity="0"/>
</linearGradient>
<linearGradient id="paint2_linear_70_207" x1="741.285" y1="-241.171" x2="681.807" y2="467.893" gradientUnits="userSpaceOnUse">
<stop stop-color="#C4C4C4"/>
<stop offset="1" stop-color="#C4C4C4" stop-opacity="0"/>
</linearGradient>
<linearGradient id="paint3_linear_70_207" x1="844.627" y1="137.026" x2="260.702" y2="145.896" gradientUnits="userSpaceOnUse">
<stop stop-color="#C4C4C4"/>
<stop offset="1" stop-color="#C4C4C4" stop-opacity="0"/>
</linearGradient>
</defs>
</svg>
