<svg width="32" height="32" viewBox="0 0 32 32" fill="none" xmlns="http://www.w3.org/2000/svg">
<rect width="32" height="32" rx="10" fill="#3D4250" fill-opacity="0.25"/>
<path d="M20.5 10H17.5C17.2348 10 16.9804 10.1054 16.7929 10.2929C16.6054 10.4804 16.5 10.7348 16.5 11V14H20.5C20.556 13.9988 20.6116 14.011 20.6619 14.0357C20.7122 14.0604 20.7559 14.0968 20.7892 14.1419C20.8225 14.187 20.8446 14.2394 20.8534 14.2947C20.8622 14.3501 20.8576 14.4068 20.84 14.46L20.1 16.66C20.0667 16.7585 20.0036 16.8442 19.9193 16.9051C19.8351 16.9661 19.734 16.9992 19.63 17H16.5V24.5C16.5 24.6326 16.4473 24.7598 16.3536 24.8536C16.2598 24.9473 16.1326 25 16 25H13.5C13.3674 25 13.2402 24.9473 13.1464 24.8536C13.0527 24.7598 13 24.6326 13 24.5V17H11.5C11.3674 17 11.2402 16.9473 11.1464 16.8536C11.0527 16.7598 11 16.6326 11 16.5V14.5C11 14.3674 11.0527 14.2402 11.1464 14.1464C11.2402 14.0527 11.3674 14 11.5 14H13V11C13 9.93913 13.4214 8.92172 14.1716 8.17157C14.9217 7.42143 15.9391 7 17 7H20.5C20.6326 7 20.7598 7.05268 20.8536 7.14645C20.9473 7.24021 21 7.36739 21 7.5V9.5C21 9.63261 20.9473 9.75979 20.8536 9.85355C20.7598 9.94732 20.6326 10 20.5 10Z" fill="#808B95"/>
</svg>
