<svg width="103" height="32" viewBox="0 0 103 32" fill="none" xmlns="http://www.w3.org/2000/svg">
<path d="M18.8976 14.4058H12.9574C11.6845 14.4058 10.6075 15.6174 10.6075 16.8609C10.6075 18.1362 11.6845 19.2203 12.9574 19.2203H15.797V20.8783C15.0463 21.5478 13.6755 22.1536 11.7824 22.1536C8.22487 22.1536 5.71171 19.4754 5.71171 16C5.71171 12.5246 8.22487 9.84638 11.7824 9.84638C13.2512 9.84638 14.4588 10.4522 15.4053 11.313C15.8622 11.7275 16.515 11.9826 17.2004 11.9826C18.6365 11.9826 19.8115 10.8667 19.8115 9.43188C19.8115 8.66667 19.4525 7.93333 18.865 7.48696C17.1678 5.98841 14.8831 5 11.7824 5C5.28742 5 0 9.24058 0 16C0 22.7594 5.28742 27 11.7824 27C15.0463 27 17.7226 25.9797 19.8441 24.2899C21.0191 23.3333 21.4108 22.2174 21.4108 20.7507V16.9246C21.4108 15.5217 20.3337 14.4058 18.8976 14.4058Z" fill="url(#paint0_linear_632_14)"/>
<path d="M27.5029 26.9043C29.0696 26.9043 30.3098 25.629 30.3098 24.1304V7.83768C30.3098 6.33913 29.0696 5.06377 27.5029 5.06377C25.9363 5.06377 24.696 6.33913 24.696 7.83768V24.1304C24.696 25.629 25.9363 26.9043 27.5029 26.9043Z" fill="url(#paint1_linear_632_14)"/>
<path d="M51.0023 26.9043C52.9279 26.9043 54.4619 25.3739 54.4619 23.5565V7.83768C54.4619 6.33913 53.1891 5.06377 51.6224 5.06377C50.0884 5.06377 48.8155 6.33913 48.8155 7.83768V17.5942L40.917 6.62609C40.2316 5.66957 39.1546 5.06377 37.9143 5.06377C35.8581 5.06377 34.2262 6.72174 34.2262 8.66667V24.1304C34.2262 25.629 35.4664 26.9043 37.0331 26.9043C38.5997 26.9043 39.84 25.629 39.84 24.1304V13.7681L48.1954 25.4696C48.8155 26.3304 49.8599 26.9043 51.0023 26.9043Z" fill="url(#paint2_linear_632_14)"/>
<path d="M61.1931 26.9043C62.7597 26.9043 64 25.629 64 24.1304V7.83768C64 6.33913 62.7597 5.06377 61.1931 5.06377C59.6265 5.06377 58.3862 6.33913 58.3862 7.83768V24.1304C58.3862 25.629 59.6265 26.9043 61.1931 26.9043Z" fill="url(#paint3_linear_632_14)"/>
<path d="M80.736 5.048H84.608L93.12 27H89.888L87.68 21.144H77.504L75.36 27H72.224L80.736 5.048ZM86.688 18.488L84.128 11.64L82.656 7.672H82.496L81.056 11.576L78.496 18.488H86.688ZM96.2878 5.048H99.3278V27H96.2878V5.048Z" fill="url(#paint4_linear_632_14)"/>
<defs>
<linearGradient id="paint0_linear_632_14" x1="0.805925" y1="1.11015" x2="69.531" y2="13.5731" gradientUnits="userSpaceOnUse">
<stop stop-color="#7A6EF9"/>
<stop offset="1" stop-color="#A04BCA"/>
</linearGradient>
<linearGradient id="paint1_linear_632_14" x1="0.805925" y1="1.11015" x2="69.531" y2="13.5731" gradientUnits="userSpaceOnUse">
<stop stop-color="#7A6EF9"/>
<stop offset="1" stop-color="#A04BCA"/>
</linearGradient>
<linearGradient id="paint2_linear_632_14" x1="0.805925" y1="1.11015" x2="69.531" y2="13.5731" gradientUnits="userSpaceOnUse">
<stop stop-color="#7A6EF9"/>
<stop offset="1" stop-color="#A04BCA"/>
</linearGradient>
<linearGradient id="paint3_linear_632_14" x1="0.805925" y1="1.11015" x2="69.531" y2="13.5731" gradientUnits="userSpaceOnUse">
<stop stop-color="#7A6EF9"/>
<stop offset="1" stop-color="#A04BCA"/>
</linearGradient>
<linearGradient id="paint4_linear_632_14" x1="72.3904" y1="-5.65797" x2="106.649" y2="-3.58912" gradientUnits="userSpaceOnUse">
<stop stop-color="#7A6EF9"/>
<stop offset="1" stop-color="#A04BCA"/>
</linearGradient>
</defs>
</svg>
