<svg width="1920" height="551" viewBox="0 0 1920 551" fill="none" xmlns="http://www.w3.org/2000/svg">
<rect width="1920" height="551" fill="#CBC2FF"/>
<mask id="mask0_70_8" style="mask-type:alpha" maskUnits="userSpaceOnUse" x="0" y="0" width="1920" height="551">
<rect width="1920" height="551" fill="#F9F9F9"/>
</mask>
<g mask="url(#mask0_70_8)">
<g filter="url(#filter0_f_70_8)">
<ellipse cx="775.214" cy="518.504" rx="268.698" ry="408.541" transform="rotate(-111.286 775.214 518.504)" fill="#7D6AF4"/>
</g>
<mask id="mask1_70_8" style="mask-type:alpha" maskUnits="userSpaceOnUse" x="64" y="-438" width="1405" height="1614">
<path d="M1468 -111.672L589.256 -437.216L120.798 336.243L64.5004 584.828L471.158 1113.55L885.315 1175.85L1223.97 490.488L1468 -111.672Z" fill="url(#paint0_linear_70_8)"/>
</mask>
<g mask="url(#mask1_70_8)">
<mask id="mask2_70_8" style="mask-type:alpha" maskUnits="userSpaceOnUse" x="-34" y="-479" width="1511" height="1709">
<path d="M838.604 1229.26C451.763 1037.46 -14.0005 751.378 -33.8964 743.101L576.001 -478.173L1476.5 -118.173L838.604 1229.26Z" fill="url(#paint1_linear_70_8)"/>
</mask>
<g mask="url(#mask2_70_8)">
<path d="M340.994 368.355C407.233 234.301 601.561 190.096 725.85 251.51C850.14 312.925 986.435 447.785 915.366 591.613C880.148 662.887 920.471 790.481 816.736 844.577C711.137 899.645 551.306 796.283 488.608 765.302C364.318 703.888 274.755 502.409 340.994 368.355Z" fill="#7D6AF4"/>
<g filter="url(#filter1_f_70_8)">
<path d="M350.846 375.221C421.886 231.451 580.359 181.742 676.854 229.423C773.348 277.103 873.177 393.917 802.137 537.687C766.934 608.932 791.204 728.549 701.327 789.45C609.835 851.445 487.909 766.823 439.233 742.77C342.738 695.09 279.806 518.99 350.846 375.221Z" fill="#7D6AF4"/>
</g>
<g filter="url(#filter2_f_70_8)">
<path d="M352.997 370.869C432.619 209.731 622.505 160.079 741.655 218.954C860.805 277.829 987.128 415.887 907.506 577.025C868.049 656.877 913.989 800.203 807.777 865.755C699.658 932.485 537.924 825.247 477.819 795.548C358.669 736.673 273.375 532.006 352.997 370.869Z" fill="#7D6AF4"/>
</g>
<g filter="url(#filter3_f_70_8)">
<path d="M401.135 371.439C531.748 188.456 784.01 108.077 938.166 184.248C1092.32 260.42 1209.08 443.742 1113.59 636.994C1066.27 732.76 1173.45 938.888 1040.46 1014.73C905.086 1091.94 629.205 941.347 551.441 902.923C397.286 826.751 249.828 583.413 401.135 371.439Z" fill="#7D6AF4"/>
</g>
<g filter="url(#filter4_f_70_8)">
<path d="M465.955 338.633C568.773 130.551 863.246 34.6929 1013.96 109.166C1164.68 183.64 1273.9 372.875 1171.08 580.957C1120.13 684.072 1115.78 837.695 980.192 923.118C842.167 1010.08 499.603 916.468 423.573 878.899C272.854 804.426 363.136 546.716 465.955 338.633Z" fill="#7D6AF4"/>
</g>
<g filter="url(#filter5_f_70_8)">
<path d="M573.476 272.513C679.729 57.4787 974.345 -27.2645 1128.5 48.9072C1282.66 125.079 1393.79 319.782 1287.53 534.816C1234.88 641.375 947.712 697.432 808.389 786.103C666.563 876.366 470.794 743.172 393.03 704.748C238.875 628.576 467.223 487.547 573.476 272.513Z" fill="#7D6AF4"/>
</g>
<g filter="url(#filter6_f_70_8)">
<path d="M469.045 422.135C562.016 233.98 845.198 172.377 999.353 248.549C1153.51 324.72 1271.58 505.378 1178.61 693.533C1132.54 786.773 1117.6 920.245 986.1 993.09C852.234 1067.24 654.655 937.714 576.891 899.289C422.736 823.117 376.073 610.289 469.045 422.135Z" fill="#7D6AF4"/>
</g>
</g>
</g>
<mask id="mask3_70_8" style="mask-type:alpha" maskUnits="userSpaceOnUse" x="322" y="-98" width="1696" height="1181">
<path d="M322.476 899.585C372.937 470.766 437.395 -76.254 438.213 -97.8069L2017.74 85.4811L1902.01 1082.87L322.476 899.585Z" fill="url(#paint2_linear_70_8)"/>
</mask>
<g mask="url(#mask3_70_8)">
<path d="M1153.37 162.601C1331.52 183.274 1463.48 354.261 1447.5 491.972C1431.52 629.683 1338.43 802.036 1147.29 779.856C1052.57 768.865 926.882 847.576 822.306 765.94C715.851 682.838 763.694 498.04 771.755 428.571C787.735 290.86 975.217 141.929 1153.37 162.601Z" fill="#7D6AF4"/>
<g filter="url(#filter7_f_70_8)">
<path d="M1149.86 174.148C1340.92 196.319 1462.34 344.221 1448.61 462.593C1434.87 580.964 1344.76 727.942 1153.7 705.771C1059.02 694.784 934.516 763.651 828.868 691.652C721.322 618.358 766.094 459.935 773.023 400.222C786.758 281.85 958.801 151.977 1149.86 174.148Z" fill="#7D6AF4"/>
</g>
<g filter="url(#filter8_f_70_8)">
<path d="M1155.65 174.821C1369.79 199.671 1504.16 380.237 1487.23 526.175C1470.29 672.113 1367.27 854.255 1153.13 829.406C1047.01 817.092 904.827 917.087 787.183 829.783C667.425 740.911 721.137 532.912 729.68 459.293C746.614 313.355 941.508 149.972 1155.65 174.821Z" fill="#7D6AF4"/>
</g>
<g filter="url(#filter9_f_70_8)">
<path d="M1178.36 194.973C1438.6 261.45 1635.63 476.145 1615.81 646.947C1595.99 817.748 1440.37 986.822 1183.55 957.021C1056.28 942.253 871.079 1109.42 729.744 1006.82C585.87 902.377 647.901 673.486 657.899 587.325C677.719 416.524 876.892 117.963 1178.36 194.973Z" fill="#7D6AF4"/>
</g>
<g filter="url(#filter10_f_70_8)">
<path d="M1259.42 274.434C1535.95 306.522 1748.47 554.209 1729.1 721.202C1709.72 888.196 1544.28 1051.96 1267.75 1019.87C1130.72 1003.97 956.935 1048.39 803.777 946.342C647.867 842.457 711.981 619.071 721.757 534.83C741.134 367.836 982.887 242.345 1259.42 274.434Z" fill="#7D6AF4"/>
</g>
<g filter="url(#filter11_f_70_8)">
<path d="M1359.31 353.58C1645.08 386.741 1864.98 640.368 1845.16 811.169C1825.34 981.971 1654.59 1149.29 1368.82 1116.13C1227.21 1099.7 1047.71 1144.93 889.328 1040.35C728.105 933.892 794.081 705.459 804.079 619.298C823.899 448.496 1073.54 320.42 1359.31 353.58Z" fill="#7D6AF4"/>
</g>
<g filter="url(#filter12_f_70_8)">
<path d="M1147.52 301.478C1397.57 330.493 1586.72 580.552 1566.9 751.353C1547.08 922.155 1395 1091.64 1144.95 1062.62C1021.04 1048.25 865.319 1076.22 727.973 974.083C588.159 870.11 649.267 641.112 659.265 554.95C679.084 384.149 897.477 272.463 1147.52 301.478Z" fill="#7D6AF4"/>
</g>
</g>
<mask id="mask4_70_8" style="mask-type:alpha" maskUnits="userSpaceOnUse" x="439" y="-76" width="1102" height="1504">
<path d="M439.215 37.8013C878.473 -14.4611 1357.93 -71.3218 1379.63 -75.3717L1540.86 1313.84L600.442 1427.02L439.215 37.8013Z" fill="url(#paint3_linear_70_8)"/>
</mask>
<g mask="url(#mask4_70_8)">
<path d="M1336.1 541.086C1347.81 638.447 1256.97 732.423 1166.7 743.286C1076.43 754.15 953.228 728.994 940.657 624.533C934.428 572.768 866.521 517.178 904.072 450.266C942.298 382.153 1067.13 381.573 1112.66 376.093C1202.93 365.229 1324.38 443.724 1336.1 541.086Z" fill="#7D6AF4"/>
<g filter="url(#filter13_f_70_8)">
<path d="M1328.22 540.851C1340.79 645.268 1271.61 729.405 1201.53 737.839C1131.45 746.273 1034.73 717.945 1022.17 613.527C1015.94 561.783 959.709 504.813 987.211 439.137C1015.21 372.281 1112.5 375.008 1147.86 370.754C1217.94 362.32 1315.66 436.433 1328.22 540.851Z" fill="#7D6AF4"/>
</g>
<g filter="url(#filter14_f_70_8)">
<path d="M1328.6 544.011C1342.69 661.043 1256.24 756.416 1169.7 766.83C1083.17 777.244 964.289 746.755 950.205 629.723C943.226 571.728 866.592 509.514 901.394 435.425C936.82 360.005 1064.09 360.87 1107.74 355.616C1194.28 345.202 1314.52 426.979 1328.6 544.011Z" fill="#7D6AF4"/>
</g>
<g filter="url(#filter15_f_70_8)">
<path d="M1301.97 560.965C1295.89 708.282 1186.22 842.9 1074.26 856.374C962.299 869.847 832.438 811.075 815.547 670.719C807.177 601.165 674.392 526.438 720.201 437.093C766.834 346.143 972.323 329.869 1028.8 323.072C1140.76 309.598 1309.01 390.308 1301.97 560.965Z" fill="#7D6AF4"/>
</g>
<g filter="url(#filter16_f_70_8)">
<path d="M1278.15 602.228C1296.33 753.355 1169.04 911.613 1059.58 924.786C950.11 937.959 822.27 873.235 804.083 722.108C795.07 647.217 742.351 561.313 786.155 465.776C830.745 368.523 1052.4 297.041 1107.62 290.395C1217.09 277.222 1259.96 451.101 1278.15 602.228Z" fill="#7D6AF4"/>
</g>
<g filter="url(#filter17_f_70_8)">
<path d="M1242.83 677.099C1261.63 833.275 1130.27 985.481 1018.31 998.954C906.344 1012.43 775.488 945.391 756.693 789.214C747.38 711.822 884.941 578.037 929.629 479.378C975.121 378.947 1130.38 381.854 1186.86 375.057C1298.82 361.583 1224.04 520.923 1242.83 677.099Z" fill="#7D6AF4"/>
</g>
<g filter="url(#filter18_f_70_8)">
<path d="M1246.5 557.49C1262.94 694.144 1129.56 829.544 1017.6 843.018C905.64 856.491 776.012 799.654 759.566 663C751.417 595.281 711.74 516.642 757.812 429.477C804.711 340.746 959.653 340.992 1016.13 334.196C1128.09 320.722 1230.05 420.836 1246.5 557.49Z" fill="#7D6AF4"/>
</g>
</g>
</g>
<defs>
<filter id="filter0_f_70_8" x="133.614" y="-21.0748" width="1283.2" height="1079.16" filterUnits="userSpaceOnUse" color-interpolation-filters="sRGB">
<feFlood flood-opacity="0" result="BackgroundImageFix"/>
<feBlend mode="normal" in="SourceGraphic" in2="BackgroundImageFix" result="shape"/>
<feGaussianBlur stdDeviation="124.268" result="effect1_foregroundBlur_70_8"/>
</filter>
<filter id="filter1_f_70_8" x="310.429" y="201.925" width="525.685" height="619.731" filterUnits="userSpaceOnUse" color-interpolation-filters="sRGB">
<feFlood flood-opacity="0" result="BackgroundImageFix"/>
<feBlend mode="normal" in="SourceGraphic" in2="BackgroundImageFix" result="shape"/>
<feGaussianBlur stdDeviation="4.97072" result="effect1_foregroundBlur_70_8"/>
</filter>
<filter id="filter2_f_70_8" x="287.196" y="160.264" width="680.024" height="761.781" filterUnits="userSpaceOnUse" color-interpolation-filters="sRGB">
<feFlood flood-opacity="0" result="BackgroundImageFix"/>
<feBlend mode="normal" in="SourceGraphic" in2="BackgroundImageFix" result="shape"/>
<feGaussianBlur stdDeviation="17.3975" result="effect1_foregroundBlur_70_8"/>
</filter>
<filter id="filter3_f_70_8" x="288.022" y="105.914" width="909.825" height="980.236" filterUnits="userSpaceOnUse" color-interpolation-filters="sRGB">
<feFlood flood-opacity="0" result="BackgroundImageFix"/>
<feBlend mode="normal" in="SourceGraphic" in2="BackgroundImageFix" result="shape"/>
<feGaussianBlur stdDeviation="24.8536" result="effect1_foregroundBlur_70_8"/>
</filter>
<filter id="filter4_f_70_8" x="209.408" y="-50.1077" width="1136.15" height="1143.33" filterUnits="userSpaceOnUse" color-interpolation-filters="sRGB">
<feFlood flood-opacity="0" result="BackgroundImageFix"/>
<feBlend mode="normal" in="SourceGraphic" in2="BackgroundImageFix" result="shape"/>
<feGaussianBlur stdDeviation="67.1047" result="effect1_foregroundBlur_70_8"/>
</filter>
<filter id="filter5_f_70_8" x="8.12125" y="-311.594" width="1654.42" height="1461.52" filterUnits="userSpaceOnUse" color-interpolation-filters="sRGB">
<feFlood flood-opacity="0" result="BackgroundImageFix"/>
<feBlend mode="normal" in="SourceGraphic" in2="BackgroundImageFix" result="shape"/>
<feGaussianBlur stdDeviation="166.519" result="effect1_foregroundBlur_70_8"/>
</filter>
<filter id="filter6_f_70_8" x="267.266" y="62.6305" width="1098.34" height="1107.07" filterUnits="userSpaceOnUse" color-interpolation-filters="sRGB">
<feFlood flood-opacity="0" result="BackgroundImageFix"/>
<feBlend mode="normal" in="SourceGraphic" in2="BackgroundImageFix" result="shape"/>
<feGaussianBlur stdDeviation="77.0461" result="effect1_foregroundBlur_70_8"/>
</filter>
<filter id="filter7_f_70_8" x="747.972" y="161.714" width="711.63" height="573.176" filterUnits="userSpaceOnUse" color-interpolation-filters="sRGB">
<feFlood flood-opacity="0" result="BackgroundImageFix"/>
<feBlend mode="normal" in="SourceGraphic" in2="BackgroundImageFix" result="shape"/>
<feGaussianBlur stdDeviation="4.97072" result="effect1_foregroundBlur_70_8"/>
</filter>
<filter id="filter8_f_70_8" x="675.513" y="137.504" width="847.944" height="763.195" filterUnits="userSpaceOnUse" color-interpolation-filters="sRGB">
<feFlood flood-opacity="0" result="BackgroundImageFix"/>
<feBlend mode="normal" in="SourceGraphic" in2="BackgroundImageFix" result="shape"/>
<feGaussianBlur stdDeviation="17.3975" result="effect1_foregroundBlur_70_8"/>
</filter>
<filter id="filter9_f_70_8" x="586.352" y="132.815" width="1080.54" height="957.218" filterUnits="userSpaceOnUse" color-interpolation-filters="sRGB">
<feFlood flood-opacity="0" result="BackgroundImageFix"/>
<feBlend mode="normal" in="SourceGraphic" in2="BackgroundImageFix" result="shape"/>
<feGaussianBlur stdDeviation="24.8536" result="effect1_foregroundBlur_70_8"/>
</filter>
<filter id="filter10_f_70_8" x="566.238" y="135.194" width="1298.29" height="1022.94" filterUnits="userSpaceOnUse" color-interpolation-filters="sRGB">
<feFlood flood-opacity="0" result="BackgroundImageFix"/>
<feBlend mode="normal" in="SourceGraphic" in2="BackgroundImageFix" result="shape"/>
<feGaussianBlur stdDeviation="67.1047" result="effect1_foregroundBlur_70_8"/>
</filter>
<filter id="filter11_f_70_8" x="449.248" y="15.2902" width="1730.19" height="1438.11" filterUnits="userSpaceOnUse" color-interpolation-filters="sRGB">
<feFlood flood-opacity="0" result="BackgroundImageFix"/>
<feBlend mode="normal" in="SourceGraphic" in2="BackgroundImageFix" result="shape"/>
<feGaussianBlur stdDeviation="166.519" result="effect1_foregroundBlur_70_8"/>
</filter>
<filter id="filter12_f_70_8" x="483.31" y="142.804" width="1239.11" height="1077.17" filterUnits="userSpaceOnUse" color-interpolation-filters="sRGB">
<feFlood flood-opacity="0" result="BackgroundImageFix"/>
<feBlend mode="normal" in="SourceGraphic" in2="BackgroundImageFix" result="shape"/>
<feGaussianBlur stdDeviation="77.0461" result="effect1_foregroundBlur_70_8"/>
</filter>
<filter id="filter13_f_70_8" x="973.163" y="363.581" width="363.069" height="382.175" filterUnits="userSpaceOnUse" color-interpolation-filters="sRGB">
<feFlood flood-opacity="0" result="BackgroundImageFix"/>
<feBlend mode="normal" in="SourceGraphic" in2="BackgroundImageFix" result="shape"/>
<feGaussianBlur stdDeviation="3.25995" result="effect1_foregroundBlur_70_8"/>
</filter>
<filter id="filter14_f_70_8" x="869.554" y="331.904" width="483.386" height="459.649" filterUnits="userSpaceOnUse" color-interpolation-filters="sRGB">
<feFlood flood-opacity="0" result="BackgroundImageFix"/>
<feBlend mode="normal" in="SourceGraphic" in2="BackgroundImageFix" result="shape"/>
<feGaussianBlur stdDeviation="11.4098" result="effect1_foregroundBlur_70_8"/>
</filter>
<filter id="filter15_f_70_8" x="678.015" y="289.025" width="656.768" height="601.825" filterUnits="userSpaceOnUse" color-interpolation-filters="sRGB">
<feFlood flood-opacity="0" result="BackgroundImageFix"/>
<feBlend mode="normal" in="SourceGraphic" in2="BackgroundImageFix" result="shape"/>
<feGaussianBlur stdDeviation="16.2998" result="effect1_foregroundBlur_70_8"/>
</filter>
<filter id="filter16_f_70_8" x="680.957" y="201.672" width="686.956" height="812.798" filterUnits="userSpaceOnUse" color-interpolation-filters="sRGB">
<feFlood flood-opacity="0" result="BackgroundImageFix"/>
<feBlend mode="normal" in="SourceGraphic" in2="BackgroundImageFix" result="shape"/>
<feGaussianBlur stdDeviation="44.0093" result="effect1_foregroundBlur_70_8"/>
</filter>
<filter id="filter17_f_70_8" x="537.826" y="155.841" width="930.701" height="1063.22" filterUnits="userSpaceOnUse" color-interpolation-filters="sRGB">
<feFlood flood-opacity="0" result="BackgroundImageFix"/>
<feBlend mode="normal" in="SourceGraphic" in2="BackgroundImageFix" result="shape"/>
<feGaussianBlur stdDeviation="109.208" result="effect1_foregroundBlur_70_8"/>
</filter>
<filter id="filter18_f_70_8" x="634.859" y="231.922" width="714.082" height="714.082" filterUnits="userSpaceOnUse" color-interpolation-filters="sRGB">
<feFlood flood-opacity="0" result="BackgroundImageFix"/>
<feBlend mode="normal" in="SourceGraphic" in2="BackgroundImageFix" result="shape"/>
<feGaussianBlur stdDeviation="50.5292" result="effect1_foregroundBlur_70_8"/>
</filter>
<linearGradient id="paint0_linear_70_8" x1="647.502" y1="250.512" x2="466.517" y2="707.66" gradientUnits="userSpaceOnUse">
<stop stop-color="#C4C4C4"/>
<stop offset="0.943414" stop-color="#C4C4C4" stop-opacity="0"/>
</linearGradient>
<linearGradient id="paint1_linear_70_8" x1="485.075" y1="441.88" x2="966.967" y2="746.365" gradientUnits="userSpaceOnUse">
<stop stop-color="#C4C4C4"/>
<stop offset="1" stop-color="#C4C4C4" stop-opacity="0"/>
</linearGradient>
<linearGradient id="paint2_linear_70_8" x1="1080.28" y1="136.829" x2="1020.81" y2="845.894" gradientUnits="userSpaceOnUse">
<stop stop-color="#C4C4C4"/>
<stop offset="1" stop-color="#C4C4C4" stop-opacity="0"/>
</linearGradient>
<linearGradient id="paint3_linear_70_8" x1="1183.63" y1="515.026" x2="599.702" y2="523.896" gradientUnits="userSpaceOnUse">
<stop stop-color="#C4C4C4"/>
<stop offset="1" stop-color="#C4C4C4" stop-opacity="0"/>
</linearGradient>
</defs>
</svg>
