<svg width="32" height="32" viewBox="0 0 32 32" fill="none" xmlns="http://www.w3.org/2000/svg">
<rect width="32" height="32" rx="10" fill="#3D4250" fill-opacity="0.25"/>
<path d="M20 7H12C10.6739 7 9.40215 7.52678 8.46447 8.46447C7.52678 9.40215 7 10.6739 7 12V20C7 21.3261 7.52678 22.5979 8.46447 23.5355C9.40215 24.4732 10.6739 25 12 25H20C21.3261 25 22.5979 24.4732 23.5355 23.5355C24.4732 22.5979 25 21.3261 25 20V12C25 10.6739 24.4732 9.40215 23.5355 8.46447C22.5979 7.52678 21.3261 7 20 7ZM23.25 20C23.2474 20.8611 22.9041 21.6863 22.2952 22.2952C21.6863 22.9041 20.8611 23.2474 20 23.25H12C11.1389 23.2474 10.3137 22.9041 9.70482 22.2952C9.09589 21.6863 8.75264 20.8611 8.75 20V12C8.75264 11.1389 9.09589 10.3137 9.70482 9.70482C10.3137 9.09589 11.1389 8.75264 12 8.75H20C20.8611 8.75264 21.6863 9.09589 22.2952 9.70482C22.9041 10.3137 23.2474 11.1389 23.25 12V20ZM21.75 11.25C21.75 11.4478 21.6914 11.6411 21.5815 11.8056C21.4716 11.97 21.3154 12.0982 21.1327 12.1739C20.95 12.2496 20.7489 12.2694 20.5549 12.2308C20.3609 12.1922 20.1827 12.097 20.0429 11.9571C19.903 11.8173 19.8078 11.6391 19.7692 11.4451C19.7306 11.2511 19.7504 11.05 19.8261 10.8673C19.9018 10.6846 20.03 10.5284 20.1944 10.4185C20.3589 10.3086 20.5522 10.25 20.75 10.25C21.0152 10.25 21.2696 10.3554 21.4571 10.5429C21.6446 10.7304 21.75 10.9848 21.75 11.25ZM16 11.5C15.11 11.5 14.24 11.7639 13.4999 12.2584C12.7599 12.7529 12.1831 13.4557 11.8425 14.2779C11.5019 15.1002 11.4128 16.005 11.5865 16.8779C11.7601 17.7508 12.1887 18.5526 12.818 19.182C13.4474 19.8113 14.2492 20.2399 15.1221 20.4135C15.995 20.5872 16.8998 20.4981 17.7221 20.1575C18.5443 19.8169 19.2471 19.2401 19.7416 18.5001C20.2361 17.76 20.5 16.89 20.5 16C20.5013 15.4087 20.3858 14.8229 20.1601 14.2764C19.9345 13.7298 19.603 13.2332 19.1849 12.8151C18.7668 12.397 18.2702 12.0655 17.7236 11.8399C17.1771 11.6142 16.5913 11.4987 16 11.5ZM16 18.75C15.4561 18.75 14.9244 18.5887 14.4722 18.2865C14.0199 17.9844 13.6675 17.5549 13.4593 17.0524C13.2512 16.5499 13.1967 15.997 13.3028 15.4635C13.4089 14.9301 13.6709 14.4401 14.0555 14.0555C14.4401 13.6709 14.9301 13.4089 15.4635 13.3028C15.997 13.1967 16.5499 13.2512 17.0524 13.4593C17.5549 13.6675 17.9844 14.0199 18.2865 14.4722C18.5887 14.9244 18.75 15.4561 18.75 16C18.75 16.7293 18.4603 17.4288 17.9445 17.9445C17.4288 18.4603 16.7293 18.75 16 18.75Z" fill="#808B95"/>
</svg>
