<svg width="32" height="32" viewBox="0 0 32 32" fill="none" xmlns="http://www.w3.org/2000/svg">
<rect width="32" height="32" rx="10" fill="#3D4250" fill-opacity="0.25"/>
<path d="M11.8856 13.1176V22.5294C11.8856 22.6542 11.8344 22.7739 11.7433 22.8622C11.6522 22.9504 11.5287 23 11.3999 23H8.9714C8.84258 23 8.71904 22.9504 8.62796 22.8622C8.53687 22.7739 8.4857 22.6542 8.4857 22.5294V13.1176C8.4857 12.9928 8.53687 12.8731 8.62796 12.7849C8.71904 12.6966 8.84258 12.6471 8.9714 12.6471H11.3999C11.5287 12.6471 11.6522 12.6966 11.7433 12.7849C11.8344 12.8731 11.8856 12.9928 11.8856 13.1176ZM24.9994 16.7976C25.0157 15.8086 24.6826 14.8438 24.0554 14.0632C23.4283 13.2827 22.5446 12.7332 21.551 12.5059C20.8749 12.3648 20.1738 12.3826 19.5062 12.5578C18.8387 12.733 18.2241 13.0605 17.714 13.5129V13.1176C17.714 12.9928 17.6628 12.8731 17.5717 12.7849C17.4806 12.6966 17.3571 12.6471 17.2283 12.6471H14.7998C14.671 12.6471 14.5474 12.6966 14.4563 12.7849C14.3652 12.8731 14.3141 12.9928 14.3141 13.1176V22.5294C14.3141 22.6542 14.3652 22.7739 14.4563 22.8622C14.5474 22.9504 14.671 23 14.7998 23H17.2283C17.3571 23 17.4806 22.9504 17.5717 22.8622C17.6628 22.7739 17.714 22.6542 17.714 22.5294V17.2212C17.7023 16.7633 17.8576 16.316 18.1525 15.958C18.4474 15.6 18.8631 15.3541 19.3265 15.2635C19.6078 15.2165 19.8964 15.2301 20.1717 15.3034C20.447 15.3766 20.7022 15.5078 20.9192 15.6875C21.1363 15.8673 21.3097 16.0911 21.4273 16.3432C21.5449 16.5952 21.6037 16.8693 21.5995 17.1459V22.5294C21.5995 22.6542 21.6507 22.7739 21.7418 22.8622C21.8329 22.9504 21.9564 23 22.0852 23H24.5137C24.6425 23 24.7661 22.9504 24.8572 22.8622C24.9483 22.7739 24.9994 22.6542 24.9994 22.5294V16.7976ZM9.94279 7C9.55855 7 9.18293 7.1104 8.86344 7.31723C8.54395 7.52407 8.29493 7.81805 8.14789 8.16201C8.00084 8.50596 7.96237 8.88444 8.03733 9.24958C8.11229 9.61472 8.29733 9.95013 8.56903 10.2134C8.84074 10.4766 9.18691 10.6559 9.56377 10.7285C9.94064 10.8012 10.3313 10.7639 10.6863 10.6214C11.0413 10.4789 11.3447 10.2377 11.5582 9.92813C11.7716 9.61858 11.8856 9.25465 11.8856 8.88235C11.8856 8.38312 11.6809 7.90434 11.3166 7.55133C10.9522 7.19832 10.4581 7 9.94279 7Z" fill="#808B95"/>
</svg>
