<svg width="64" height="22" viewBox="0 0 64 22" fill="none" xmlns="http://www.w3.org/2000/svg">
<path d="M18.8976 9.4058H12.9574C11.6845 9.4058 10.6075 10.6174 10.6075 11.8609C10.6075 13.1362 11.6845 14.2203 12.9574 14.2203H15.797V15.8783C15.0463 16.5478 13.6755 17.1536 11.7824 17.1536C8.22487 17.1536 5.71171 14.4754 5.71171 11C5.71171 7.52464 8.22487 4.84638 11.7824 4.84638C13.2512 4.84638 14.4588 5.45217 15.4053 6.31304C15.8622 6.72754 16.515 6.98261 17.2004 6.98261C18.6365 6.98261 19.8115 5.86667 19.8115 4.43188C19.8115 3.66667 19.4525 2.93333 18.865 2.48696C17.1678 0.988406 14.8831 0 11.7824 0C5.28742 0 0 4.24058 0 11C0 17.7594 5.28742 22 11.7824 22C15.0463 22 17.7226 20.9797 19.8441 19.2899C21.0191 18.3333 21.4108 17.2174 21.4108 15.7507V11.9246C21.4108 10.5217 20.3337 9.4058 18.8976 9.4058Z" fill="url(#paint0_linear_163_40)"/>
<path d="M27.5029 21.9043C29.0696 21.9043 30.3098 20.629 30.3098 19.1304V2.83768C30.3098 1.33913 29.0696 0.0637673 27.5029 0.0637673C25.9363 0.0637673 24.696 1.33913 24.696 2.83768V19.1304C24.696 20.629 25.9363 21.9043 27.5029 21.9043Z" fill="url(#paint1_linear_163_40)"/>
<path d="M51.0023 21.9043C52.9279 21.9043 54.4619 20.3739 54.4619 18.5565V2.83768C54.4619 1.33913 53.1891 0.0637673 51.6224 0.0637673C50.0884 0.0637673 48.8155 1.33913 48.8155 2.83768V12.5942L40.917 1.62609C40.2316 0.669566 39.1546 0.0637673 37.9143 0.0637673C35.8581 0.0637673 34.2262 1.72174 34.2262 3.66667V19.1304C34.2262 20.629 35.4664 21.9043 37.0331 21.9043C38.5997 21.9043 39.84 20.629 39.84 19.1304V8.76812L48.1954 20.4696C48.8155 21.3304 49.8599 21.9043 51.0023 21.9043Z" fill="url(#paint2_linear_163_40)"/>
<path d="M61.1931 21.9043C62.7597 21.9043 64 20.629 64 19.1304V2.83768C64 1.33913 62.7597 0.0637673 61.1931 0.0637673C59.6265 0.0637673 58.3862 1.33913 58.3862 2.83768V19.1304C58.3862 20.629 59.6265 21.9043 61.1931 21.9043Z" fill="url(#paint3_linear_163_40)"/>
<defs>
<linearGradient id="paint0_linear_163_40" x1="0.805925" y1="-3.88985" x2="69.531" y2="8.57309" gradientUnits="userSpaceOnUse">
<stop stop-color="#7A6EF9"/>
<stop offset="1" stop-color="#A04BCA"/>
</linearGradient>
<linearGradient id="paint1_linear_163_40" x1="0.805925" y1="-3.88985" x2="69.531" y2="8.57309" gradientUnits="userSpaceOnUse">
<stop stop-color="#7A6EF9"/>
<stop offset="1" stop-color="#A04BCA"/>
</linearGradient>
<linearGradient id="paint2_linear_163_40" x1="0.805925" y1="-3.88985" x2="69.531" y2="8.57309" gradientUnits="userSpaceOnUse">
<stop stop-color="#7A6EF9"/>
<stop offset="1" stop-color="#A04BCA"/>
</linearGradient>
<linearGradient id="paint3_linear_163_40" x1="0.805925" y1="-3.88985" x2="69.531" y2="8.57309" gradientUnits="userSpaceOnUse">
<stop stop-color="#7A6EF9"/>
<stop offset="1" stop-color="#A04BCA"/>
</linearGradient>
</defs>
</svg>
