<svg width="80" height="80" viewBox="0 0 80 80" fill="none" xmlns="http://www.w3.org/2000/svg">
<rect width="80" height="80" rx="18" fill="url(#paint0_linear_806_302)"/>
<g filter="url(#filter0_bd_806_302)">
<path fill-rule="evenodd" clip-rule="evenodd" d="M58.0083 16H59V16.9906C59.0001 16.9965 59.0001 17.0023 59 17.0082V23C59 23.5523 58.5523 24 58 24C57.4478 24 57 23.5523 57 23V19.0709L44.9763 28.6178C44.4457 29.039 43.7882 29.2683 43.1108 29.2683H30.5756C30.2724 29.2683 29.9856 29.4059 29.7958 29.6423L21.7798 39.6261C21.434 40.0568 20.8046 40.1256 20.374 39.7798C19.9433 39.434 19.8745 38.8046 20.2203 38.374L28.2363 28.3901C28.8057 27.6809 29.6661 27.2683 30.5756 27.2683H43.1108C43.3366 27.2683 43.5558 27.1919 43.7326 27.0515L55.1324 18H52C51.4478 18 51 17.5523 51 17C51 16.4478 51.4478 16 52 16H57.9905C57.9964 16 58.0023 16 58.0083 16Z" fill="url(#paint1_linear_806_302)"/>
<path fill-rule="evenodd" clip-rule="evenodd" d="M51.2283 44.6797L55.7282 46.0547C58.1448 46.7852 59.6447 49.4922 58.7281 52.1562C58.1031 54.0469 56.2698 55.207 54.3532 55.25V57.3125C54.3532 57.6992 54.0199 58 53.6866 58H52.3533C51.9783 58 51.6867 57.6992 51.6867 57.3125V55.25C50.3534 55.25 49.1034 54.8203 48.0618 53.9609C47.7284 53.7031 47.6868 53.2305 47.9784 52.9297L49.4367 51.4688C49.6451 51.2539 49.9784 51.2109 50.27 51.3828C50.6867 51.6836 51.1867 51.8125 51.6867 51.8125H54.4366C55.1032 51.8125 55.6865 51.2539 55.6865 50.5664C55.6865 50.0078 55.3115 49.4922 54.7699 49.3633L50.52 48.0742C48.6451 47.5156 47.1868 45.8828 47.0201 43.9062C46.7701 41.1133 48.8951 38.75 51.5617 38.75H51.6867V36.6875C51.6867 36.3438 51.9783 36 52.3533 36H53.6866C54.0199 36 54.3532 36.3438 54.3532 36.6875V38.75C55.6449 38.793 56.9365 39.2227 57.9365 40.0391C58.2698 40.3398 58.3114 40.8125 58.0198 41.1133L56.5615 42.5742C56.3532 42.7891 56.0198 42.832 55.7699 42.6602C55.3532 42.3594 54.8532 42.1875 54.3116 42.1875H51.5617C50.895 42.1875 50.3534 42.7891 50.3534 43.4766C50.3534 44.0352 50.6867 44.5508 51.2283 44.6797ZM40.2735 48.2266L36.5236 47.1016C36.0723 46.9961 35.7945 46.5742 35.7945 46.1172C35.7945 45.5547 36.2459 45.0625 36.8014 45.0625H39.093C39.5444 45.0625 39.961 45.2031 40.3082 45.4492C40.5166 45.5898 40.7943 45.5547 40.9679 45.3789L42.1832 44.1836C42.4262 43.9375 42.3915 43.5508 42.1137 43.3047C41.2804 42.6367 40.2041 42.2852 39.1277 42.25V40.5625C39.1277 40.2812 38.8499 40 38.5722 40H37.4611C37.1486 40 36.9056 40.2812 36.9056 40.5625V42.25H36.8014C34.5792 42.25 32.8085 44.1836 33.0168 46.4688C33.1557 48.0859 34.3709 49.4219 35.9334 49.8789L39.4749 50.9336C39.9263 51.0391 40.2388 51.4609 40.2388 51.918C40.2388 52.4805 39.7527 52.9375 39.1972 52.9375H36.9056C36.4889 52.9375 36.0723 52.832 35.725 52.5859C35.482 52.4453 35.2042 52.4805 35.0306 52.6562L33.8154 53.8516C33.5723 54.0977 33.6071 54.4844 33.8848 54.6953C34.7529 55.3984 35.7945 55.75 36.9056 55.75V57.4375C36.9056 57.7539 37.1486 58 37.4611 58H38.5722C38.8499 58 39.1277 57.7539 39.1277 57.4375V55.75C40.7249 55.7148 42.2526 54.7656 42.7734 53.2188C43.5373 51.0391 42.2873 48.8242 40.2735 48.2266ZM27.0915 51.4844L24.4666 50.7344C24.1506 50.6641 23.9562 50.3828 23.9562 50.0781C23.9562 49.7031 24.2721 49.375 24.661 49.375H26.2651C26.5811 49.375 26.8728 49.4688 27.1158 49.6328C27.2616 49.7266 27.4561 49.7031 27.5776 49.5859L28.4283 48.7891C28.5984 48.625 28.5741 48.3672 28.3796 48.2031C27.7963 47.7578 27.0429 47.5234 26.2894 47.5V46.375C26.2894 46.1875 26.095 46 25.9006 46H25.1228C24.9041 46 24.7339 46.1875 24.7339 46.375V47.5H24.661C23.1055 47.5 21.866 48.7891 22.0118 50.3125C22.109 51.3906 22.9597 52.2812 24.0534 52.5859L26.5325 53.2891C26.8484 53.3594 27.0672 53.6406 27.0672 53.9453C27.0672 54.3203 26.7269 54.625 26.338 54.625H24.7339C24.4423 54.625 24.1506 54.5547 23.9076 54.3906C23.7374 54.2969 23.543 54.3203 23.4215 54.4375L22.5708 55.2344C22.4007 55.3984 22.425 55.6562 22.6194 55.7969C23.227 56.2656 23.9562 56.5 24.7339 56.5V57.625C24.7339 57.8359 24.9041 58 25.1228 58H25.9006C26.095 58 26.2894 57.8359 26.2894 57.625V56.5C27.4075 56.4766 28.4769 55.8438 28.8414 54.8125C29.3761 53.3594 28.5012 51.8828 27.0915 51.4844Z" fill="url(#paint2_linear_806_302)"/>
</g>
<defs>
<filter id="filter0_bd_806_302" x="4" y="0" width="71.0001" height="74" filterUnits="userSpaceOnUse" color-interpolation-filters="sRGB">
<feFlood flood-opacity="0" result="BackgroundImageFix"/>
<feGaussianBlur in="BackgroundImageFix" stdDeviation="8"/>
<feComposite in2="SourceAlpha" operator="in" result="effect1_backgroundBlur_806_302"/>
<feColorMatrix in="SourceAlpha" type="matrix" values="0 0 0 0 0 0 0 0 0 0 0 0 0 0 0 0 0 0 127 0" result="hardAlpha"/>
<feOffset dx="2" dy="4"/>
<feGaussianBlur stdDeviation="2"/>
<feComposite in2="hardAlpha" operator="out"/>
<feColorMatrix type="matrix" values="0 0 0 0 0 0 0 0 0 0 0 0 0 0 0 0 0 0 0.09 0"/>
<feBlend mode="normal" in2="effect1_backgroundBlur_806_302" result="effect2_dropShadow_806_302"/>
<feBlend mode="normal" in="SourceGraphic" in2="effect2_dropShadow_806_302" result="shape"/>
</filter>
<linearGradient id="paint0_linear_806_302" x1="8.75" y1="1.00932e-06" x2="70" y2="80" gradientUnits="userSpaceOnUse">
<stop stop-color="#12CEAA"/>
<stop offset="1" stop-color="#4AF4D4"/>
</linearGradient>
<linearGradient id="paint1_linear_806_302" x1="59.5" y1="25.5" x2="18.0014" y2="27.0386" gradientUnits="userSpaceOnUse">
<stop stop-color="white"/>
<stop offset="1" stop-color="white" stop-opacity="0"/>
</linearGradient>
<linearGradient id="paint2_linear_806_302" x1="18" y1="50.5" x2="59.5" y2="50.5" gradientUnits="userSpaceOnUse">
<stop stop-color="white" stop-opacity="0"/>
<stop offset="1" stop-color="white"/>
</linearGradient>
</defs>
</svg>
