<svg width="80" height="80" viewBox="0 0 80 80" fill="none" xmlns="http://www.w3.org/2000/svg">
<rect width="80" height="80" rx="18" fill="url(#paint0_linear_701_405)"/>
<g filter="url(#filter0_bd_701_405)">
<path d="M24.5828 34.0841L24.5826 34.0838C24.261 33.7634 24.1 33.3674 24.1 32.8889V27.5556C24.1 26.6045 24.4372 25.7925 25.1143 25.1143C25.7925 24.4372 26.6045 24.1 27.5556 24.1H32.8889C33.3674 24.1 33.7641 24.2605 34.0857 24.5809C34.4062 24.9026 34.5667 25.2993 34.5667 25.7778C34.5667 26.2564 34.4062 26.6524 34.0857 26.9728C33.764 27.2945 33.3674 27.4556 32.8889 27.4556H27.5556H27.4556V27.5556V32.8889C27.4556 33.3675 27.2951 33.7635 26.9746 34.084C26.6529 34.4056 26.2562 34.5667 25.7778 34.5667C25.2993 34.5667 24.9033 34.4057 24.5828 34.0841ZM27.4556 52.4444V52.5444H27.5556H32.8889C33.3674 52.5444 33.764 52.7055 34.0857 53.0272C34.4062 53.3476 34.5667 53.7436 34.5667 54.2222C34.5667 54.7008 34.4062 55.0969 34.0857 55.4173C33.764 55.739 33.3674 55.9 32.8889 55.9H27.5556C26.6045 55.9 25.7926 55.5628 25.1143 54.8858C24.4372 54.2075 24.1 53.3955 24.1 52.4444V47.1111C24.1 46.6326 24.261 46.236 24.5827 45.9143C24.9031 45.5938 25.2992 45.4333 25.7778 45.4333C26.2563 45.4333 26.653 45.5938 26.9746 45.9143C27.2951 46.2359 27.4556 46.6326 27.4556 47.1111V52.4444ZM45.9162 55.4174L45.9159 55.4172C45.5943 55.0967 45.4333 54.7007 45.4333 54.2222C45.4333 53.7438 45.5943 53.3477 45.9159 53.0273L45.9162 53.027C46.2366 52.7055 46.6326 52.5444 47.1111 52.5444H52.4444H52.5444V52.4444V47.1111C52.5444 46.6326 52.7055 46.236 53.0272 45.9143C53.3476 45.5938 53.7436 45.4333 54.2222 45.4333C54.7008 45.4333 55.0969 45.5938 55.4173 45.9143C55.739 46.236 55.9 46.6326 55.9 47.1111V52.4444C55.9 53.3955 55.5628 54.2075 54.8857 54.8857C54.2075 55.5628 53.3955 55.9 52.4444 55.9H47.1111C46.6326 55.9 46.2366 55.739 45.9162 55.4174ZM53.0273 34.0841L53.027 34.0838C52.7055 33.7634 52.5444 33.3674 52.5444 32.8889V27.5556V27.4556H52.4444H47.1111C46.6326 27.4556 46.2366 27.2945 45.9162 26.973L45.9159 26.9727C45.5943 26.6523 45.4333 26.2562 45.4333 25.7778C45.4333 25.2993 45.5944 24.9026 45.916 24.5809C46.2365 24.2605 46.6325 24.1 47.1111 24.1H52.4444C53.3955 24.1 54.2075 24.4372 54.8858 25.1143C55.5628 25.7926 55.9 26.6045 55.9 27.5556V32.8889C55.9 33.3674 55.739 33.7634 55.4174 34.0838L55.4172 34.0841C55.0967 34.4057 54.7007 34.5667 54.2222 34.5667C53.7438 34.5667 53.3477 34.4057 53.0273 34.0841Z" fill="url(#paint1_linear_701_405)" stroke="url(#paint2_linear_701_405)" stroke-width="0.2"/>
<path d="M40.8571 37.7667H44.2856C44.7152 37.7672 45.1261 37.9297 45.4284 38.217C45.7305 38.5043 45.8995 38.8925 45.9 39.2964V42.148C45.8991 42.876 45.5946 43.5749 45.0514 44.0913C44.5081 44.6078 43.7704 44.8992 42.9999 44.9H37.1V39.0007L38.3856 37.1676L38.3991 37.1483L38.4026 37.125L38.7647 34.7148C38.7647 34.7148 38.7647 34.7147 38.7647 34.7146C38.7909 34.5459 38.88 34.3906 39.0173 34.2774C39.1548 34.1641 39.3312 34.1008 39.5146 34.1H39.5714C39.8873 34.1003 40.1893 34.2198 40.4113 34.4308C40.6331 34.6417 40.7568 34.9264 40.7571 35.2223V37.6667V37.7667H40.8571ZM34.1 39.3963H36.0429V44.9H34.1V39.3963Z" fill="url(#paint3_linear_701_405)" stroke="url(#paint4_linear_701_405)" stroke-width="0.2"/>
</g>
<defs>
<filter id="filter0_bd_701_405" x="8" y="8" width="64" height="64" filterUnits="userSpaceOnUse" color-interpolation-filters="sRGB">
<feFlood flood-opacity="0" result="BackgroundImageFix"/>
<feGaussianBlur in="BackgroundImageFix" stdDeviation="8"/>
<feComposite in2="SourceAlpha" operator="in" result="effect1_backgroundBlur_701_405"/>
<feColorMatrix in="SourceAlpha" type="matrix" values="0 0 0 0 0 0 0 0 0 0 0 0 0 0 0 0 0 0 127 0" result="hardAlpha"/>
<feOffset dx="2" dy="4"/>
<feGaussianBlur stdDeviation="5"/>
<feComposite in2="hardAlpha" operator="out"/>
<feColorMatrix type="matrix" values="0 0 0 0 0 0 0 0 0 0 0 0 0 0 0 0 0 0 0.16 0"/>
<feBlend mode="normal" in2="effect1_backgroundBlur_701_405" result="effect2_dropShadow_701_405"/>
<feBlend mode="normal" in="SourceGraphic" in2="effect2_dropShadow_701_405" result="shape"/>
</filter>
<linearGradient id="paint0_linear_701_405" x1="10" y1="3.125" x2="69.375" y2="75.625" gradientUnits="userSpaceOnUse">
<stop stop-color="#3294EE"/>
<stop offset="1" stop-color="#6BB8FF"/>
</linearGradient>
<linearGradient id="paint1_linear_701_405" x1="56" y1="37.5" x2="24" y2="37.5" gradientUnits="userSpaceOnUse">
<stop stop-color="white"/>
<stop offset="1" stop-color="white" stop-opacity="0"/>
</linearGradient>
<linearGradient id="paint2_linear_701_405" x1="56" y1="40" x2="24" y2="40" gradientUnits="userSpaceOnUse">
<stop stop-color="white"/>
<stop offset="1" stop-color="white" stop-opacity="0"/>
</linearGradient>
<linearGradient id="paint3_linear_701_405" x1="47.5" y1="41" x2="34" y2="41" gradientUnits="userSpaceOnUse">
<stop stop-color="white"/>
<stop offset="1" stop-color="white" stop-opacity="0"/>
</linearGradient>
<linearGradient id="paint4_linear_701_405" x1="46.5" y1="41.5" x2="34" y2="41.5" gradientUnits="userSpaceOnUse">
<stop stop-color="white"/>
<stop offset="1" stop-color="white" stop-opacity="0"/>
</linearGradient>
</defs>
</svg>
