<svg width="80" height="80" viewBox="0 0 80 80" fill="none" xmlns="http://www.w3.org/2000/svg">
<rect width="80" height="80" rx="18" fill="url(#paint0_linear_806_305)"/>
<g filter="url(#filter0_bd_806_305)">
<path d="M40 26.6665C32.6533 26.6665 26.6666 32.6532 26.6666 39.9998C26.6666 47.3465 32.6533 53.3332 40 53.3332C47.3466 53.3332 53.3333 47.3465 53.3333 39.9998C53.3333 32.6532 47.3466 26.6665 40 26.6665ZM46.44 44.7332C46.0266 45.2532 43.8133 47.8532 40.0533 47.8532H39.9866C36.3466 47.8265 34.1466 45.3332 33.7466 44.8265C33.4 44.3998 33.4666 43.7732 33.8933 43.4265C34.32 43.0798 34.9466 43.1332 35.2933 43.5732C35.6 43.9465 37.2666 45.8265 40.0133 45.8532H40.0533C42.9466 45.8532 44.68 43.7332 44.8666 43.4932C45.2133 43.0665 45.84 42.9865 46.2666 43.3198C46.7066 43.6665 46.7866 44.2932 46.44 44.7332ZM35.2 35.6532C36.1333 35.6532 36.8933 36.3998 36.8933 37.3332C36.8933 38.2665 36.1333 39.0132 35.2 39.0132C34.28 39.0132 33.52 38.2665 33.52 37.3332C33.52 36.3998 34.28 35.6532 35.2 35.6532ZM43.1066 37.3332C43.1066 36.3998 43.8666 35.6532 44.8 35.6532C45.7333 35.6532 46.48 36.3998 46.48 37.3332C46.48 38.2665 45.7333 39.0132 44.8 39.0132C43.8666 39.0132 43.1066 38.2665 43.1066 37.3332Z" fill="url(#paint1_linear_806_305)"/>
<path d="M46.5965 44.8576L46.5971 44.8569C47.0134 44.3286 46.9155 43.5765 46.3904 43.1627L46.3897 43.1622C45.8738 42.7591 45.124 42.8592 44.7114 43.367L44.7114 43.367L44.7087 43.3704C44.5297 43.6006 42.8483 45.6532 40.0533 45.6532H40.0143C37.364 45.627 35.7492 43.8126 35.4491 43.4477C35.0302 42.9179 34.2763 42.8576 33.7672 43.2713C33.2557 43.6869 33.1748 44.4386 33.5905 44.9515C34.0046 45.4757 36.2551 48.0259 39.9852 48.0532H39.9866H40.0533C43.909 48.0532 46.1741 45.3891 46.5965 44.8576ZM26.8666 39.9998C26.8666 32.7636 32.7637 26.8665 40 26.8665C47.2362 26.8665 53.1333 32.7636 53.1333 39.9998C53.1333 47.236 47.2362 53.1332 40 53.1332C32.7637 53.1332 26.8666 47.236 26.8666 39.9998ZM37.0933 37.3332C37.0933 36.2873 36.2417 35.4532 35.2 35.4532C34.1705 35.4532 33.32 36.2884 33.32 37.3332C33.32 38.378 34.1705 39.2132 35.2 39.2132C36.2417 39.2132 37.0933 38.379 37.0933 37.3332ZM44.8 35.4532C43.7582 35.4532 42.9066 36.2873 42.9066 37.3332C42.9066 38.379 43.7582 39.2132 44.8 39.2132C45.8438 39.2132 46.68 38.377 46.68 37.3332C46.68 36.2894 45.8438 35.4532 44.8 35.4532Z" stroke="url(#paint2_linear_806_305)" stroke-width="0.4"/>
</g>
<defs>
<filter id="filter0_bd_806_305" x="11.6666" y="11.6665" width="56.6666" height="56.6665" filterUnits="userSpaceOnUse" color-interpolation-filters="sRGB">
<feFlood flood-opacity="0" result="BackgroundImageFix"/>
<feGaussianBlur in="BackgroundImageFix" stdDeviation="7.5"/>
<feComposite in2="SourceAlpha" operator="in" result="effect1_backgroundBlur_806_305"/>
<feColorMatrix in="SourceAlpha" type="matrix" values="0 0 0 0 0 0 0 0 0 0 0 0 0 0 0 0 0 0 127 0" result="hardAlpha"/>
<feOffset dx="5" dy="5"/>
<feGaussianBlur stdDeviation="5"/>
<feColorMatrix type="matrix" values="0 0 0 0 0.6 0 0 0 0 0.337255 0 0 0 0 0.937255 0 0 0 1 0"/>
<feBlend mode="normal" in2="effect1_backgroundBlur_806_305" result="effect2_dropShadow_806_305"/>
<feBlend mode="normal" in="SourceGraphic" in2="effect2_dropShadow_806_305" result="shape"/>
</filter>
<linearGradient id="paint0_linear_806_305" x1="10" y1="3.125" x2="69.375" y2="75.625" gradientUnits="userSpaceOnUse">
<stop stop-color="#9956EF"/>
<stop offset="1" stop-color="#B880FF"/>
</linearGradient>
<linearGradient id="paint1_linear_806_305" x1="51.4426" y1="30.4735" x2="21.7574" y2="31.6978" gradientUnits="userSpaceOnUse">
<stop stop-color="white"/>
<stop offset="1" stop-color="white" stop-opacity="0.2"/>
</linearGradient>
<linearGradient id="paint2_linear_806_305" x1="30.9115" y1="29.1226" x2="43.3899" y2="48.6713" gradientUnits="userSpaceOnUse">
<stop stop-color="white" stop-opacity="0.25"/>
<stop offset="1" stop-color="white" stop-opacity="0"/>
</linearGradient>
</defs>
</svg>
