<svg width="80" height="80" viewBox="0 0 80 80" fill="none" xmlns="http://www.w3.org/2000/svg">
<rect width="80" height="80" rx="18" fill="url(#paint0_linear_806_304)"/>
<g filter="url(#filter0_bd_806_304)">
<path d="M48.0666 28.0398C47.9488 28.0398 47.8533 27.9443 47.8533 27.8265V27.6665C47.8533 27.1198 47.4 26.6665 46.8533 26.6665C46.3066 26.6665 45.8533 27.1198 45.8533 27.6665C45.8533 27.8727 45.6861 28.0398 45.48 28.0398H34.52C34.3138 28.0398 34.1466 27.8727 34.1466 27.6665C34.1466 27.1198 33.7066 26.6665 33.1466 26.6665C32.6 26.6665 32.1466 27.1198 32.1466 27.6665V27.8265C32.1466 27.9443 32.0511 28.0398 31.9333 28.0398C29.0266 28.0398 26.6666 30.3998 26.6666 33.3065V48.0665C26.6666 50.9732 29.0266 53.3332 31.9333 53.3332H48.0666C50.9733 53.3332 53.3333 50.9732 53.3333 48.0665V33.3065C53.3333 30.3998 50.9733 28.0398 48.0666 28.0398ZM32 49.2932C31.2666 49.2932 30.6666 48.7065 30.6666 47.9598C30.6666 47.2265 31.2666 46.6265 32 46.6265C32.7333 46.6265 33.3333 47.2265 33.3333 47.9598C33.3333 48.7065 32.7333 49.2932 32 49.2932ZM32 44.6532C31.2666 44.6532 30.6666 44.0532 30.6666 43.3198C30.6666 42.5732 31.2666 41.9865 32 41.9865C32.7333 41.9865 33.3333 42.5732 33.3333 43.3198C33.3333 44.0532 32.7333 44.6532 32 44.6532ZM32 39.9998C31.2666 39.9998 30.6666 39.3998 30.6666 38.6665C30.6666 37.9332 31.2666 37.3332 32 37.3332C32.7333 37.3332 33.3333 37.9332 33.3333 38.6665C33.3333 39.3998 32.7333 39.9998 32 39.9998ZM37.3333 49.2932C36.6 49.2932 36 48.7065 36 47.9598C36 47.2265 36.6 46.6265 37.3333 46.6265C38.0666 46.6265 38.6666 47.2265 38.6666 47.9598C38.6666 48.7065 38.0666 49.2932 37.3333 49.2932ZM37.3333 44.6532C36.6 44.6532 36 44.0532 36 43.3198C36 42.5732 36.6 41.9865 37.3333 41.9865C38.0666 41.9865 38.6666 42.5732 38.6666 43.3198C38.6666 44.0532 38.0666 44.6532 37.3333 44.6532ZM37.3333 39.9998C36.6 39.9998 36 39.3998 36 38.6665C36 37.9332 36.6 37.3332 37.3333 37.3332C38.0666 37.3332 38.6666 37.9332 38.6666 38.6665C38.6666 39.3998 38.0666 39.9998 37.3333 39.9998ZM42.6666 49.2932C41.9333 49.2932 41.3333 48.7065 41.3333 47.9598C41.3333 47.2265 41.9333 46.6265 42.6666 46.6265C43.4 46.6265 44 47.2265 44 47.9598C44 48.7065 43.4 49.2932 42.6666 49.2932ZM42.6666 44.6532C41.9333 44.6532 41.3333 44.0532 41.3333 43.3198C41.3333 42.5732 41.9333 41.9865 42.6666 41.9865C43.4 41.9865 44 42.5732 44 43.3198C44 44.0532 43.4 44.6532 42.6666 44.6532ZM42.6666 39.9998C41.9333 39.9998 41.3333 39.3998 41.3333 38.6665C41.3333 37.9332 41.9333 37.3332 42.6666 37.3332C43.4 37.3332 44 37.9332 44 38.6665C44 39.3998 43.4 39.9998 42.6666 39.9998ZM48 44.6532C47.2666 44.6532 46.6666 44.0532 46.6666 43.3198C46.6666 42.5732 47.2666 41.9865 48 41.9865C48.7333 41.9865 49.3333 42.5732 49.3333 43.3198C49.3333 44.0532 48.7333 44.6532 48 44.6532ZM48 39.9998C47.2666 39.9998 46.6666 39.3998 46.6666 38.6665C46.6666 37.9332 47.2666 37.3332 48 37.3332C48.7333 37.3332 49.3333 37.9332 49.3333 38.6665C49.3333 39.3998 48.7333 39.9998 48 39.9998ZM51.3333 33.3065C51.3333 33.4317 51.2318 33.5332 51.1066 33.5332H28.8933C28.7681 33.5332 28.6666 33.4317 28.6666 33.3065C28.6666 31.5065 30.1333 30.0398 31.9333 30.0398C32.0511 30.0398 32.1466 30.1353 32.1466 30.2532V30.4132C32.1466 30.9732 32.6 31.4132 33.1466 31.4132C33.7066 31.4132 34.1466 30.9732 34.1466 30.4132C34.1466 30.207 34.3138 30.0398 34.52 30.0398H45.48C45.6861 30.0398 45.8533 30.207 45.8533 30.4132C45.8533 30.9732 46.3066 31.4132 46.8533 31.4132C47.4 31.4132 47.8533 30.9732 47.8533 30.4132V30.2532C47.8533 30.1354 47.9488 30.0398 48.0666 30.0398C49.8666 30.0398 51.3333 31.5065 51.3333 33.3065Z" fill="url(#paint1_linear_806_304)"/>
<path d="M47.7533 27.8265C47.7533 27.9995 47.8936 28.1398 48.0666 28.1398C50.9181 28.1398 53.2333 30.4551 53.2333 33.3065V48.0665C53.2333 50.9179 50.9181 53.2332 48.0666 53.2332H31.9333C29.0819 53.2332 26.7666 50.9179 26.7666 48.0665V33.3065C26.7666 30.4551 29.0819 28.1398 31.9333 28.1398C32.1063 28.1398 32.2466 27.9996 32.2466 27.8265V27.6665C32.2466 27.1751 32.6552 26.7665 33.1466 26.7665C33.6505 26.7665 34.0466 27.1742 34.0466 27.6665C34.0466 27.9279 34.2585 28.1398 34.52 28.1398H45.48C45.7414 28.1398 45.9533 27.9279 45.9533 27.6665C45.9533 27.1751 46.3619 26.7665 46.8533 26.7665C47.3447 26.7665 47.7533 27.1751 47.7533 27.6665V27.8265ZM30.5666 47.9598C30.5666 48.7624 31.2121 49.3932 32 49.3932C32.7879 49.3932 33.4333 48.7624 33.4333 47.9598C33.4333 47.1713 32.7885 46.5265 32 46.5265C31.2114 46.5265 30.5666 47.1713 30.5666 47.9598ZM30.5666 43.3198C30.5666 44.1084 31.2114 44.7532 32 44.7532C32.7885 44.7532 33.4333 44.1084 33.4333 43.3198C33.4333 42.5173 32.7879 41.8865 32 41.8865C31.2121 41.8865 30.5666 42.5173 30.5666 43.3198ZM30.5666 38.6665C30.5666 39.4551 31.2114 40.0998 32 40.0998C32.7885 40.0998 33.4333 39.4551 33.4333 38.6665C33.4333 37.8779 32.7885 37.2332 32 37.2332C31.2114 37.2332 30.5666 37.8779 30.5666 38.6665ZM35.9 47.9598C35.9 48.7624 36.5454 49.3932 37.3333 49.3932C38.1212 49.3932 38.7666 48.7624 38.7666 47.9598C38.7666 47.1713 38.1219 46.5265 37.3333 46.5265C36.5447 46.5265 35.9 47.1713 35.9 47.9598ZM35.9 43.3198C35.9 44.1084 36.5447 44.7532 37.3333 44.7532C38.1219 44.7532 38.7666 44.1084 38.7666 43.3198C38.7666 42.5173 38.1212 41.8865 37.3333 41.8865C36.5454 41.8865 35.9 42.5173 35.9 43.3198ZM35.9 38.6665C35.9 39.4551 36.5447 40.0998 37.3333 40.0998C38.1219 40.0998 38.7666 39.4551 38.7666 38.6665C38.7666 37.8779 38.1219 37.2332 37.3333 37.2332C36.5447 37.2332 35.9 37.8779 35.9 38.6665ZM41.2333 47.9598C41.2333 48.7624 41.8787 49.3932 42.6666 49.3932C43.4545 49.3932 44.1 48.7624 44.1 47.9598C44.1 47.1713 43.4552 46.5265 42.6666 46.5265C41.8781 46.5265 41.2333 47.1713 41.2333 47.9598ZM41.2333 43.3198C41.2333 44.1084 41.8781 44.7532 42.6666 44.7532C43.4552 44.7532 44.1 44.1084 44.1 43.3198C44.1 42.5173 43.4545 41.8865 42.6666 41.8865C41.8787 41.8865 41.2333 42.5173 41.2333 43.3198ZM41.2333 38.6665C41.2333 39.4551 41.8781 40.0998 42.6666 40.0998C43.4552 40.0998 44.1 39.4551 44.1 38.6665C44.1 37.8779 43.4552 37.2332 42.6666 37.2332C41.8781 37.2332 41.2333 37.8779 41.2333 38.6665ZM46.5666 43.3198C46.5666 44.1084 47.2114 44.7532 48 44.7532C48.7885 44.7532 49.4333 44.1084 49.4333 43.3198C49.4333 42.5173 48.7879 41.8865 48 41.8865C47.212 41.8865 46.5666 42.5173 46.5666 43.3198ZM46.5666 38.6665C46.5666 39.4551 47.2114 40.0998 48 40.0998C48.7885 40.0998 49.4333 39.4551 49.4333 38.6665C49.4333 37.8779 48.7885 37.2332 48 37.2332C47.2114 37.2332 46.5666 37.8779 46.5666 38.6665ZM51.1066 33.6332C51.287 33.6332 51.4333 33.4869 51.4333 33.3065C51.4333 31.4513 49.9219 29.9398 48.0666 29.9398C47.8936 29.9398 47.7533 30.0801 47.7533 30.2532V30.4132C47.7533 30.9171 47.3456 31.3132 46.8533 31.3132C46.361 31.3132 45.9533 30.9171 45.9533 30.4132C45.9533 30.1518 45.7414 29.9398 45.48 29.9398H34.52C34.2585 29.9398 34.0466 30.1518 34.0466 30.4132C34.0466 30.9179 33.6514 31.3132 33.1466 31.3132C32.6543 31.3132 32.2466 30.9171 32.2466 30.4132V30.2532C32.2466 30.0801 32.1063 29.9398 31.9333 29.9398C30.0781 29.9398 28.5666 31.4513 28.5666 33.3065C28.5666 33.4869 28.7129 33.6332 28.8933 33.6332H51.1066Z" stroke="url(#paint2_linear_806_304)" stroke-opacity="0.5" stroke-width="0.2"/>
</g>
<defs>
<filter id="filter0_bd_806_304" x="11.6666" y="11.6665" width="56.6666" height="56.6665" filterUnits="userSpaceOnUse" color-interpolation-filters="sRGB">
<feFlood flood-opacity="0" result="BackgroundImageFix"/>
<feGaussianBlur in="BackgroundImageFix" stdDeviation="7.5"/>
<feComposite in2="SourceAlpha" operator="in" result="effect1_backgroundBlur_806_304"/>
<feColorMatrix in="SourceAlpha" type="matrix" values="0 0 0 0 0 0 0 0 0 0 0 0 0 0 0 0 0 0 127 0" result="hardAlpha"/>
<feOffset dx="5" dy="5"/>
<feGaussianBlur stdDeviation="5"/>
<feColorMatrix type="matrix" values="0 0 0 0 0.0705882 0 0 0 0 0.807843 0 0 0 0 0.666667 0 0 0 1 0"/>
<feBlend mode="normal" in2="effect1_backgroundBlur_806_304" result="effect2_dropShadow_806_304"/>
<feBlend mode="normal" in="SourceGraphic" in2="effect2_dropShadow_806_304" result="shape"/>
</filter>
<linearGradient id="paint0_linear_806_304" x1="8.75" y1="1.00932e-06" x2="70" y2="80" gradientUnits="userSpaceOnUse">
<stop stop-color="#12CEAA"/>
<stop offset="1" stop-color="#4AF4D4"/>
</linearGradient>
<linearGradient id="paint1_linear_806_304" x1="51.4426" y1="31.482" x2="21.7385" y2="32.4505" gradientUnits="userSpaceOnUse">
<stop stop-color="white"/>
<stop offset="1" stop-color="white" stop-opacity="0.2"/>
</linearGradient>
<linearGradient id="paint2_linear_806_304" x1="29.5392" y1="35.6119" x2="52.1829" y2="35.7369" gradientUnits="userSpaceOnUse">
<stop stop-color="white"/>
<stop offset="1" stop-color="white" stop-opacity="0"/>
</linearGradient>
</defs>
</svg>
