<svg width="112" height="16" viewBox="0 0 112 16" fill="none" xmlns="http://www.w3.org/2000/svg">
<path d="M7.05184 0.560588C7.48124 -0.186862 8.51876 -0.186863 8.94816 0.560587L10.8457 3.86373C11.0003 4.13281 11.2532 4.3246 11.546 4.39494L15.1414 5.25841C15.9549 5.4538 16.2756 6.484 15.7274 7.14134L13.3048 10.0463C13.1075 10.2829 13.0109 10.5932 13.0373 10.9058L13.3618 14.7426C13.4352 15.6108 12.5958 16.2475 11.8276 15.9063L8.43281 14.3985C8.15626 14.2757 7.84374 14.2757 7.56719 14.3985L4.17238 15.9063C3.40418 16.2475 2.56481 15.6108 2.63823 14.7426L2.96268 10.9058C2.98911 10.5932 2.89254 10.2829 2.69519 10.0463L0.272625 7.14134C-0.275564 6.48401 0.0450492 5.4538 0.858618 5.25841L4.45396 4.39494C4.74684 4.3246 4.99968 4.13281 5.15426 3.86373L7.05184 0.560588Z" fill="#F4BD6A"/>
<path d="M31.0518 0.560588C31.4812 -0.186862 32.5188 -0.186863 32.9482 0.560587L34.8457 3.86373C35.0003 4.13281 35.2532 4.3246 35.546 4.39494L39.1414 5.25841C39.9549 5.4538 40.2756 6.484 39.7274 7.14134L37.3048 10.0463C37.1075 10.2829 37.0109 10.5932 37.0373 10.9058L37.3618 14.7426C37.4352 15.6108 36.5958 16.2475 35.8276 15.9063L32.4328 14.3985C32.1563 14.2757 31.8437 14.2757 31.5672 14.3985L28.1724 15.9063C27.4042 16.2475 26.5648 15.6108 26.6382 14.7426L26.9627 10.9058C26.9891 10.5932 26.8925 10.2829 26.6952 10.0463L24.2726 7.14134C23.7244 6.48401 24.045 5.4538 24.8586 5.25841L28.454 4.39494C28.7468 4.3246 28.9997 4.13281 29.1543 3.86373L31.0518 0.560588Z" fill="#F4BD6A"/>
<path d="M55.0518 0.560588C55.4812 -0.186862 56.5188 -0.186863 56.9482 0.560587L58.8457 3.86373C59.0003 4.13281 59.2532 4.3246 59.546 4.39494L63.1414 5.25841C63.9549 5.4538 64.2756 6.484 63.7274 7.14134L61.3048 10.0463C61.1075 10.2829 61.0109 10.5932 61.0373 10.9058L61.3618 14.7426C61.4352 15.6108 60.5958 16.2475 59.8276 15.9063L56.4328 14.3985C56.1563 14.2757 55.8437 14.2757 55.5672 14.3985L52.1724 15.9063C51.4042 16.2475 50.5648 15.6108 50.6382 14.7426L50.9627 10.9058C50.9891 10.5932 50.8925 10.2829 50.6952 10.0463L48.2726 7.14134C47.7244 6.48401 48.045 5.4538 48.8586 5.25841L52.454 4.39494C52.7468 4.3246 52.9997 4.13281 53.1543 3.86373L55.0518 0.560588Z" fill="#F4BD6A"/>
<path d="M79.0518 0.560588C79.4812 -0.186862 80.5188 -0.186863 80.9482 0.560587L82.8457 3.86373C83.0003 4.13281 83.2532 4.3246 83.546 4.39494L87.1414 5.25841C87.9549 5.4538 88.2756 6.484 87.7274 7.14134L85.3048 10.0463C85.1075 10.2829 85.0109 10.5932 85.0373 10.9058L85.3618 14.7426C85.4352 15.6108 84.5958 16.2475 83.8276 15.9063L80.4328 14.3985C80.1563 14.2757 79.8437 14.2757 79.5672 14.3985L76.1724 15.9063C75.4042 16.2475 74.5648 15.6108 74.6382 14.7426L74.9627 10.9058C74.9891 10.5932 74.8925 10.2829 74.6952 10.0463L72.2726 7.14134C71.7244 6.48401 72.045 5.4538 72.8586 5.25841L76.454 4.39494C76.7468 4.3246 76.9997 4.13281 77.1543 3.86373L79.0518 0.560588Z" fill="#F4BD6A"/>
<path d="M103.052 0.560588C103.481 -0.186862 104.519 -0.186863 104.948 0.560587L106.846 3.86373C107 4.13281 107.253 4.3246 107.546 4.39494L111.141 5.25841C111.955 5.4538 112.276 6.484 111.727 7.14134L109.305 10.0463C109.107 10.2829 109.011 10.5932 109.037 10.9058L109.362 14.7426C109.435 15.6108 108.596 16.2475 107.828 15.9063L104.433 14.3985C104.156 14.2757 103.844 14.2757 103.567 14.3985L100.172 15.9063C99.4042 16.2475 98.5648 15.6108 98.6382 14.7426L98.9627 10.9058C98.9891 10.5932 98.8925 10.2829 98.6952 10.0463L96.2726 7.14134C95.7244 6.48401 96.045 5.4538 96.8586 5.25841L100.454 4.39494C100.747 4.3246 101 4.13281 101.154 3.86373L103.052 0.560588Z" fill="#F4BD6A"/>
</svg>
