<svg width="32" height="32" viewBox="0 0 32 32" fill="none" xmlns="http://www.w3.org/2000/svg">
<rect width="32" height="32" rx="10" fill="#3D4250" fill-opacity="0.25"/>
<path fill-rule="evenodd" clip-rule="evenodd" d="M24.9751 11.0289C24.5365 11.5958 24.0063 12.0903 23.405 12.4933C23.405 12.6414 23.405 12.7894 23.405 12.9458C23.4074 14.277 23.1365 15.5955 22.6082 16.8243C22.0798 18.0532 21.3045 19.1678 20.3275 20.1034C19.3504 21.0391 18.1911 21.7769 16.917 22.274C15.643 22.7711 14.2796 23.0176 12.9063 22.999C11.3026 23.0042 9.71939 22.6494 8.28075 21.9624C8.2428 21.9464 8.21052 21.9199 8.1879 21.8863C8.16528 21.8527 8.1533 21.8134 8.15345 21.7732V21.6827C8.15345 21.626 8.17669 21.5716 8.21808 21.5315C8.25946 21.4914 8.31559 21.4688 8.37411 21.4688C9.95053 21.4185 11.4707 20.8889 12.7196 19.9551C12.0204 19.9414 11.3395 19.7365 10.7553 19.3638C10.1711 18.9912 9.70755 18.466 9.41804 17.849C9.40337 17.8152 9.39792 17.7783 9.40221 17.7418C9.4065 17.7053 9.4204 17.6706 9.44256 17.6408C9.46473 17.6111 9.49441 17.5874 9.52876 17.572C9.56311 17.5565 9.60097 17.55 9.63871 17.5528C10.0724 17.5951 10.5104 17.556 10.9288 17.4376C10.1611 17.2832 9.46382 16.8965 8.93756 16.3331C8.4113 15.7698 8.08323 15.059 8.00068 14.3032C7.99772 14.2666 8.00451 14.2299 8.02041 14.1966C8.03631 14.1633 8.06078 14.1345 8.09147 14.1131C8.12216 14.0916 8.15803 14.0781 8.19563 14.074C8.23324 14.0698 8.27132 14.0751 8.30622 14.0893C8.72892 14.27 9.18523 14.3652 9.6472 14.369C8.97605 13.9422 8.46963 13.312 8.20707 12.5767C7.9445 11.8414 7.94057 11.0426 8.19588 10.3049C8.22252 10.2325 8.26812 10.168 8.32821 10.1177C8.38829 10.0675 8.46081 10.0332 8.53866 10.0183C8.61651 10.0033 8.69703 10.0083 8.77233 10.0326C8.84762 10.0568 8.91513 10.0997 8.96822 10.1568C10.8307 12.0774 13.3898 13.2218 16.106 13.3489C16.0364 13.0799 16.0022 12.8035 16.0041 12.5262C16.0166 11.8153 16.2467 11.1239 16.6653 10.5401C17.0839 9.95616 17.672 9.50602 18.3551 9.24683C19.0381 8.98763 19.7853 8.93105 20.5016 9.0843C21.2178 9.23754 21.871 9.59368 22.378 10.1075C23.0849 9.97701 23.7683 9.74696 24.4065 9.42465C24.4294 9.41079 24.4559 9.40344 24.4829 9.40344C24.5099 9.40344 24.5364 9.41079 24.5593 9.42465C24.5736 9.44686 24.5811 9.47251 24.5811 9.49869C24.5811 9.52487 24.5736 9.55052 24.5593 9.57273C24.2502 10.2585 23.728 10.8337 23.0655 11.2181C23.6456 11.1529 24.2155 11.0204 24.763 10.8232C24.7855 10.8084 24.8121 10.8004 24.8393 10.8004C24.8666 10.8004 24.8932 10.8084 24.9157 10.8232C24.9348 10.8317 24.9517 10.8441 24.9654 10.8595C24.979 10.875 24.989 10.8931 24.9947 10.9127C25.0003 10.9323 25.0015 10.9528 24.9981 10.9729C24.9948 10.993 24.9869 11.0121 24.9751 11.0289Z" fill="#808B95"/>
</svg>
